<svg xmlns="http://www.w3.org/2000/svg" viewBox="0 0 223.39 168.05"><defs><style>.cls-1{fill:none;}</style></defs><g id="Слой_2" data-name="Слой 2"><g id="Слой_1-2" data-name="Слой 1"><polygon class="cls-1" points="140.68 86.61 140.68 68.42 73 102.36 140.68 86.61"/><polygon class="cls-1" points="55.55 110.23 140.78 67.49 135.91 47.49 55.55 110.23"/><polygon class="cls-1" points="141.56 70.69 141.56 156.18 163.94 162.52 141.56 70.69"/><polygon class="cls-1" points="121.4 145.97 71.86 102.94 53.72 112.03 121.4 145.97"/><polygon class="cls-1" points="121.99 145.4 139.82 87.6 73.28 103.09 121.99 145.4"/><polygon class="cls-1" points="137.98 155.17 52.74 112.42 35.24 126.09 137.98 155.17"/><polygon class="cls-1" points="140.68 87.76 122.55 146.55 140.68 155.64 140.68 87.76"/><polygon class="cls-1" points="15.93 145.62 1.52 167.28 190.48 167.28 15.93 145.62"/><polygon class="cls-1" points="126.1 23.2 111.7 1.53 17.22 143.68 126.1 23.2"/><polygon class="cls-1" points="126.11 24.42 34.95 125.29 136.19 46.24 126.11 24.42"/><polygon class="cls-1" points="163.28 163.14 33.85 126.51 17.14 145 163.28 163.14"/><polygon class="cls-1" points="127.39 25.14 193.07 167.28 221.87 167.28 127.39 25.14"/><polygon class="cls-1" points="136.85 47.67 165.05 163.35 191.84 166.68 136.85 47.67"/><path d="M112.08.57,111.7,0,0,168.05H223.39ZM52.74,112.42,138,155.17,35.24,126.09Zm87.94-24.66v67.88l-18.13-9.09ZM122,145.4,73.28,103.09,139.82,87.6Zm18.69-58.79L73,102.36l67.68-33.94ZM71.86,102.94l49.54,43L53.72,112Zm69.7-32.25,22.38,91.83-22.38-6.34Zm-86,39.54,80.36-62.74,4.87,20ZM35,125.29,126.11,24.42l10.08,21.82Zm-1.1,1.22,129.44,36.63L17.14,145Zm131.2,36.85L136.85,47.67l55,119ZM127.39,25.14l94.48,142.14h-28.8ZM126.1,23.2,17.22,143.68,111.7,1.53ZM15.93,145.62l174.55,21.66H1.52Z"/></g></g></svg>