<svg xmlns="http://www.w3.org/2000/svg" viewBox="0 0 200.04 306.94"><defs><style>.cls-1{fill:none;}</style></defs><g id="Слой_2" data-name="Слой 2"><g id="Слой_1-2" data-name="Слой 1"><path class="cls-1" d="M80.26,128c-19.09-1-36.65-3.38-50.73-7a101.66,101.66,0,0,1-15.81-5.26C5.63,119.35,1,123.53,1,128s4.63,8.62,12.72,12.24A103.82,103.82,0,0,1,29.53,135C43.61,131.35,61.17,129,80.26,128Z"/><ellipse class="cls-1" cx="100.02" cy="140.72" rx="85.14" ry="12.25"/><path class="cls-1" d="M80.26,102.48c-19.09-1-36.65-3.37-50.73-7a103.82,103.82,0,0,1-15.81-5.26C5.63,93.86,1,98,1,102.48s4.63,8.62,12.72,12.25a102.66,102.66,0,0,1,15.81-5.27C43.61,105.85,61.17,103.46,80.26,102.48Z"/><path class="cls-1" d="M80.26,204.46c-19.09-1-36.65-3.37-50.73-7a103.82,103.82,0,0,1-15.81-5.26C5.63,195.84,1,200,1,204.46s4.63,8.63,12.72,12.25a102.66,102.66,0,0,1,15.81-5.27C43.61,207.84,61.17,205.44,80.26,204.46Z"/><ellipse class="cls-1" cx="100.02" cy="115.23" rx="85.14" ry="12.25"/><ellipse class="cls-1" cx="100.02" cy="191.71" rx="85.14" ry="12.25"/><path class="cls-1" d="M80.26,179c-19.09-1-36.65-3.38-50.73-7a101.66,101.66,0,0,1-15.81-5.26C5.63,170.34,1,174.52,1,179s4.63,8.62,12.72,12.24A103.82,103.82,0,0,1,29.53,186C43.61,182.34,61.17,180,80.26,179Z"/><ellipse class="cls-1" cx="100.02" cy="166.22" rx="85.14" ry="12.25"/><path class="cls-1" d="M80.26,153.47c-19.09-1-36.65-3.37-50.73-7a103.82,103.82,0,0,1-15.81-5.26C5.63,144.85,1,149,1,153.47s4.63,8.63,12.72,12.25a102.66,102.66,0,0,1,15.81-5.27C43.61,156.85,61.17,154.45,80.26,153.47Z"/><path class="cls-1" d="M100,25.5c26.63,0,51.66,2.65,70.5,7.48a102.58,102.58,0,0,1,15.8,5.26C194.41,34.62,199,30.44,199,26c0-13.79-44.42-25-99-25S1,12.21,1,26c0,4.44,4.63,8.62,12.72,12.24A102.73,102.73,0,0,1,29.53,33C48.36,28.15,73.4,25.5,100,25.5Z"/><ellipse class="cls-1" cx="100.02" cy="38.74" rx="85.14" ry="12.25"/><ellipse class="cls-1" cx="100.02" cy="89.73" rx="85.14" ry="12.25"/><path class="cls-1" d="M80.26,51.49c-19.09-1-36.65-3.37-50.73-7a103.82,103.82,0,0,1-15.81-5.26C5.63,42.87,1,47,1,51.49s4.63,8.62,12.72,12.25a102.66,102.66,0,0,1,15.81-5.27C43.61,54.86,61.17,52.47,80.26,51.49Z"/><path class="cls-1" d="M80.26,77c-19.09-1-36.65-3.38-50.73-7a101.66,101.66,0,0,1-15.81-5.26C5.63,68.36,1,72.54,1,77s4.63,8.62,12.72,12.24A102.73,102.73,0,0,1,29.53,84C43.61,80.36,61.17,78,80.26,77Z"/><ellipse class="cls-1" cx="100.02" cy="64.24" rx="85.14" ry="12.25"/><path class="cls-1" d="M119.78,179c19.1,1,36.65,3.37,50.74,7a103.67,103.67,0,0,1,15.8,5.26c8.09-3.62,12.72-7.8,12.72-12.24s-4.63-8.63-12.72-12.25a101.51,101.51,0,0,1-15.8,5.26C156.43,175.59,138.88,178,119.78,179Z"/><path class="cls-1" d="M119.78,102.48c19.1,1,36.65,3.37,50.74,7a102.51,102.51,0,0,1,15.8,5.27c8.09-3.63,12.72-7.8,12.72-12.25s-4.63-8.62-12.72-12.24a103.67,103.67,0,0,1-15.8,5.26C156.43,99.11,138.88,101.5,119.78,102.48Z"/><path class="cls-1" d="M119.78,77c19.1,1,36.65,3.37,50.74,7a102.58,102.58,0,0,1,15.8,5.26C194.41,85.61,199,81.43,199,77s-4.63-8.63-12.72-12.25A101.51,101.51,0,0,1,170.52,70C156.43,73.61,138.88,76,119.78,77Z"/><path class="cls-1" d="M119.78,128c19.1,1,36.65,3.37,50.74,7a103.67,103.67,0,0,1,15.8,5.26C194.41,136.6,199,132.42,199,128s-4.63-8.63-12.72-12.25a101.51,101.51,0,0,1-15.8,5.26C156.43,124.6,138.88,127,119.78,128Z"/><ellipse class="cls-1" cx="100.02" cy="217.21" rx="85.14" ry="12.25"/><path class="cls-1" d="M119.78,153.47c19.1,1,36.65,3.38,50.74,7a102.51,102.51,0,0,1,15.8,5.27c8.09-3.62,12.72-7.8,12.72-12.25s-4.63-8.62-12.72-12.24a103.67,103.67,0,0,1-15.8,5.26C156.43,150.1,138.88,152.49,119.78,153.47Z"/><path class="cls-1" d="M186.32,39.25a103.67,103.67,0,0,1-15.8,5.26c-14.09,3.61-31.64,6-50.74,7,19.1,1,36.65,3.37,50.74,7a102.51,102.51,0,0,1,15.8,5.27c8.09-3.63,12.72-7.8,12.72-12.25S194.41,42.87,186.32,39.25Z"/><path class="cls-1" d="M119.78,204.46c19.1,1,36.65,3.38,50.74,7a102.51,102.51,0,0,1,15.8,5.27c8.09-3.62,12.72-7.8,12.72-12.25s-4.63-8.62-12.72-12.24a103.67,103.67,0,0,1-15.8,5.26C156.43,201.09,138.88,203.48,119.78,204.46Z"/><ellipse class="cls-1" cx="100.02" cy="268.2" rx="85.14" ry="12.25"/><path class="cls-1" d="M80.26,255.45c-19.09-1-36.65-3.37-50.73-7a103.82,103.82,0,0,1-15.81-5.26C5.63,246.83,1,251,1,255.45s4.63,8.63,12.72,12.25a101.66,101.66,0,0,1,15.81-5.26C43.61,258.83,61.17,256.43,80.26,255.45Z"/><path class="cls-1" d="M80.26,230c-19.09-1-36.65-3.38-50.73-7a101.66,101.66,0,0,1-15.81-5.26C5.63,221.33,1,225.51,1,230s4.63,8.62,12.72,12.24a103.82,103.82,0,0,1,15.81-5.26C43.61,233.33,61.17,230.94,80.26,230Z"/><path class="cls-1" d="M100,281.45c-26.62,0-51.66-2.66-70.49-7.49a101.66,101.66,0,0,1-15.81-5.26C5.63,272.32,1,276.5,1,281c0,13.78,44.42,25,99,25s99-11.21,99-25c0-4.45-4.63-8.63-12.72-12.25a101.51,101.51,0,0,1-15.8,5.26C151.68,278.79,126.65,281.45,100,281.45Z"/><ellipse class="cls-1" cx="100.02" cy="242.7" rx="85.14" ry="12.25"/><path class="cls-1" d="M119.78,255.45c19.1,1,36.65,3.38,50.74,7a101.51,101.51,0,0,1,15.8,5.26c8.09-3.62,12.72-7.8,12.72-12.25s-4.63-8.62-12.72-12.24a103.67,103.67,0,0,1-15.8,5.26C156.43,252.08,138.88,254.47,119.78,255.45Z"/><path class="cls-1" d="M119.78,230c19.1,1,36.65,3.37,50.74,7a103.67,103.67,0,0,1,15.8,5.26C194.41,238.58,199,234.4,199,230s-4.63-8.63-12.72-12.25a101.51,101.51,0,0,1-15.8,5.26C156.43,226.58,138.88,229,119.78,230Z"/><path d="M200,51.49c0-4.56-4.38-8.92-12.61-12.75C195.66,34.91,200,30.56,200,26c0-7.07-10.48-13.64-29.52-18.52C151.68,2.66,126.65,0,100,0S48.36,2.66,29.53,7.48C10.49,12.36,0,18.93,0,26c0,4.56,4.38,8.91,12.61,12.74C4.38,42.57,0,46.93,0,51.49s4.38,8.92,12.61,12.75C4.38,68.07,0,72.42,0,77S4.38,85.9,12.61,89.73C4.38,93.56,0,97.92,0,102.48s4.38,8.92,12.61,12.75C4.38,119.06,0,123.42,0,128s4.38,8.91,12.61,12.74C4.38,144.55,0,148.91,0,153.47s4.38,8.92,12.61,12.75C4.38,170.05,0,174.41,0,179s4.38,8.92,12.61,12.74C4.38,195.54,0,199.9,0,204.46s4.38,8.92,12.61,12.75C4.38,221,0,225.4,0,230s4.38,8.92,12.61,12.75C4.38,246.53,0,250.89,0,255.45s4.38,8.92,12.61,12.75C4.38,272,0,276.39,0,281c0,7.06,10.49,13.63,29.53,18.51,18.83,4.83,43.87,7.48,70.49,7.48s51.66-2.65,70.5-7.48C189.56,294.58,200,288,200,281c0-4.56-4.38-8.92-12.61-12.75C195.66,264.37,200,260,200,255.45s-4.38-8.92-12.61-12.74C195.66,238.88,200,234.52,200,230s-4.38-8.92-12.61-12.75C195.66,213.38,200,209,200,204.46s-4.38-8.92-12.61-12.75C195.66,187.89,200,183.53,200,179s-4.38-8.92-12.61-12.75C195.66,162.39,200,158,200,153.47s-4.38-8.92-12.61-12.75C195.66,136.89,200,132.54,200,128s-4.38-8.92-12.61-12.75C195.66,111.4,200,107,200,102.48s-4.38-8.92-12.61-12.75C195.66,85.9,200,81.55,200,77s-4.38-8.92-12.61-12.75C195.66,60.41,200,56.05,200,51.49ZM1,26C1,12.21,45.42,1,100,1s99,11.21,99,25c0,4.44-4.63,8.62-12.72,12.24A102.58,102.58,0,0,0,170.52,33c-18.84-4.83-43.87-7.48-70.5-7.48S48.36,28.15,29.53,33a102.73,102.73,0,0,0-15.81,5.26C5.63,34.62,1,30.44,1,26ZM185.16,38.74C167.88,46.07,136.19,51,100,51S32.16,46.07,14.88,38.74C32.16,31.42,63.86,26.5,100,26.5S167.88,31.42,185.16,38.74ZM1,51.49C1,47,5.63,42.87,13.72,39.25a103.82,103.82,0,0,0,15.81,5.26c14.08,3.61,31.64,6,50.73,7-19.09,1-36.65,3.37-50.73,7a102.66,102.66,0,0,0-15.81,5.27C5.63,60.11,1,55.94,1,51.49Zm99,.5c36.17,0,67.86,4.92,85.14,12.25-17.28,7.32-49,12.25-85.14,12.25S32.16,71.56,14.88,64.24C32.16,56.91,63.86,52,100,52ZM1,77c0-4.45,4.63-8.63,12.72-12.25A101.66,101.66,0,0,0,29.53,70c14.08,3.61,31.64,6,50.73,7-19.09,1-36.65,3.37-50.73,7a102.73,102.73,0,0,0-15.81,5.26C5.63,85.61,1,81.43,1,77Zm99,.5c36.17,0,67.86,4.92,85.14,12.24C167.88,97.06,136.19,102,100,102S32.16,97.06,14.88,89.73C32.16,82.41,63.86,77.49,100,77.49Zm-99,25C1,98,5.63,93.86,13.72,90.24A103.82,103.82,0,0,0,29.53,95.5c14.08,3.61,31.64,6,50.73,7-19.09,1-36.65,3.37-50.73,7a102.66,102.66,0,0,0-15.81,5.27C5.63,111.1,1,106.93,1,102.48Zm99,.5c36.17,0,67.86,4.92,85.14,12.25-17.28,7.33-49,12.25-85.14,12.25s-67.86-4.92-85.14-12.25C32.16,107.9,63.86,103,100,103ZM1,128c0-4.45,4.63-8.63,12.72-12.25A101.66,101.66,0,0,0,29.53,121c14.08,3.61,31.64,6,50.73,7-19.09,1-36.65,3.37-50.73,7a103.82,103.82,0,0,0-15.81,5.26C5.63,136.6,1,132.42,1,128Zm99,.5c36.17,0,67.86,4.92,85.14,12.24C167.88,148.05,136.19,153,100,153s-67.86-4.92-85.14-12.25C32.16,133.4,63.86,128.48,100,128.48Zm-99,25c0-4.44,4.63-8.62,12.72-12.24a103.82,103.82,0,0,0,15.81,5.26c14.08,3.61,31.64,6,50.73,7-19.09,1-36.65,3.38-50.73,7a102.66,102.66,0,0,0-15.81,5.27C5.63,162.1,1,157.92,1,153.47Zm99,.5c36.17,0,67.86,4.92,85.14,12.25-17.28,7.33-49,12.25-85.14,12.25s-67.86-4.92-85.14-12.25C32.16,158.89,63.86,154,100,154ZM1,179c0-4.45,4.63-8.63,12.72-12.25A101.66,101.66,0,0,0,29.53,172c14.08,3.61,31.64,6,50.73,7-19.09,1-36.65,3.37-50.73,7a103.82,103.82,0,0,0-15.81,5.26C5.63,187.59,1,183.41,1,179Zm99,.5c36.17,0,67.86,4.92,85.14,12.24C167.88,199,136.19,204,100,204S32.16,199,14.88,191.71C32.16,184.39,63.86,179.47,100,179.47Zm-99,25c0-4.44,4.63-8.62,12.72-12.24a103.82,103.82,0,0,0,15.81,5.26c14.08,3.61,31.64,6,50.73,7-19.09,1-36.65,3.38-50.73,7a102.66,102.66,0,0,0-15.81,5.27C5.63,213.09,1,208.91,1,204.46Zm99,.5c36.17,0,67.86,4.92,85.14,12.25-17.28,7.33-49,12.25-85.14,12.25s-67.86-4.92-85.14-12.25C32.16,209.88,63.86,205,100,205ZM1,230c0-4.45,4.63-8.63,12.72-12.25A101.66,101.66,0,0,0,29.53,223c14.08,3.61,31.64,6,50.73,7-19.09,1-36.65,3.37-50.73,7a103.82,103.82,0,0,0-15.81,5.26C5.63,238.58,1,234.4,1,230Zm99,.5c36.17,0,67.86,4.92,85.14,12.24C167.88,250,136.19,255,100,255S32.16,250,14.88,242.7C32.16,235.38,63.86,230.46,100,230.46Zm-99,25c0-4.44,4.63-8.62,12.72-12.24a103.82,103.82,0,0,0,15.81,5.26c14.08,3.61,31.64,6,50.73,7-19.09,1-36.65,3.38-50.73,7a101.66,101.66,0,0,0-15.81,5.26C5.63,264.08,1,259.9,1,255.45Zm99,.5c36.17,0,67.86,4.92,85.14,12.25-17.28,7.33-49,12.25-85.14,12.25s-67.86-4.92-85.14-12.25C32.16,260.87,63.86,256,100,256Zm99,25c0,13.78-44.42,25-99,25S1,294.73,1,281c0-4.45,4.63-8.63,12.72-12.25A101.66,101.66,0,0,0,29.53,274c18.83,4.83,43.87,7.49,70.49,7.49s51.66-2.66,70.5-7.49a101.51,101.51,0,0,0,15.8-5.26C194.41,272.32,199,276.5,199,281Zm0-25.5c0,4.45-4.63,8.63-12.72,12.25a101.51,101.51,0,0,0-15.8-5.26c-14.09-3.61-31.64-6-50.74-7,19.1-1,36.65-3.37,50.74-7a103.67,103.67,0,0,0,15.8-5.26C194.41,246.83,199,251,199,255.45ZM199,230c0,4.44-4.63,8.62-12.72,12.24a103.67,103.67,0,0,0-15.8-5.26c-14.09-3.61-31.64-6-50.74-7,19.1-1,36.65-3.38,50.74-7a101.51,101.51,0,0,0,15.8-5.26C194.41,221.33,199,225.51,199,230Zm0-25.5c0,4.45-4.63,8.63-12.72,12.25a102.51,102.51,0,0,0-15.8-5.27c-14.09-3.6-31.64-6-50.74-7,19.1-1,36.65-3.37,50.74-7a103.67,103.67,0,0,0,15.8-5.26C194.41,195.84,199,200,199,204.46ZM199,179c0,4.44-4.63,8.62-12.72,12.24a103.67,103.67,0,0,0-15.8-5.26c-14.09-3.61-31.64-6-50.74-7,19.1-1,36.65-3.38,50.74-7a101.51,101.51,0,0,0,15.8-5.26C194.41,170.34,199,174.52,199,179Zm0-25.5c0,4.45-4.63,8.63-12.72,12.25a102.51,102.51,0,0,0-15.8-5.27c-14.09-3.6-31.64-6-50.74-7,19.1-1,36.65-3.37,50.74-7a103.67,103.67,0,0,0,15.8-5.26C194.41,144.85,199,149,199,153.47ZM199,128c0,4.44-4.63,8.62-12.72,12.24a103.67,103.67,0,0,0-15.8-5.26c-14.09-3.61-31.64-6-50.74-7,19.1-1,36.65-3.38,50.74-7a101.51,101.51,0,0,0,15.8-5.26C194.41,119.35,199,123.53,199,128Zm0-25.5c0,4.45-4.63,8.62-12.72,12.25a102.51,102.51,0,0,0-15.8-5.27c-14.09-3.61-31.64-6-50.74-7,19.1-1,36.65-3.37,50.74-7a103.67,103.67,0,0,0,15.8-5.26C194.41,93.86,199,98,199,102.48ZM199,77c0,4.44-4.63,8.62-12.72,12.24A102.58,102.58,0,0,0,170.52,84c-14.09-3.61-31.64-6-50.74-7,19.1-1,36.65-3.38,50.74-7a101.51,101.51,0,0,0,15.8-5.26C194.41,68.36,199,72.54,199,77ZM186.32,63.74a102.51,102.51,0,0,0-15.8-5.27c-14.09-3.61-31.64-6-50.74-7,19.1-1,36.65-3.37,50.74-7a103.67,103.67,0,0,0,15.8-5.26C194.41,42.87,199,47,199,51.49S194.41,60.11,186.32,63.74Z"/></g></g></svg>