<svg xmlns="http://www.w3.org/2000/svg" viewBox="0 0 277.79 277.79"><defs><style>.cls-1{fill:none;}</style></defs><g id="Слой_2" data-name="Слой 2"><g id="Слой_1-2" data-name="Слой 1"><path class="cls-1" d="M153.91,200.31q-3.53-.39-7-.9-3.27,1.41-6.58,2.69c2.41.9,4.84,1.74,7.27,2.54C149.7,203.23,151.82,201.8,153.91,200.31Z"/><path class="cls-1" d="M138.89,198.09q-3,.57-6.1,1,3,1.27,6.11,2.44c2-.78,4.08-1.59,6.1-2.44C143,198.82,140.93,198.47,138.89,198.09Z"/><path class="cls-1" d="M137.51,202.1q-3.31-1.28-6.58-2.69-3.52.51-7.05.9c2.09,1.48,4.22,2.92,6.36,4.33C132.68,203.84,135.1,203,137.51,202.1Z"/><path class="cls-1" d="M154.17,196.09c-1.85.89-3.71,1.74-5.58,2.57,2.17.3,4.35.55,6.53.77q2.65-1.91,5.25-3.92C158.31,195.73,156.24,195.93,154.17,196.09Z"/><path class="cls-1" d="M169.29,194.34q-3.51.54-7,1c-1.86,1.47-3.75,2.89-5.65,4.29,2.55.24,5.11.42,7.66.57Q166.83,197.3,169.29,194.34Z"/><path class="cls-1" d="M123.62,196.09c-2.07-.16-4.14-.36-6.2-.58,1.73,1.34,3.49,2.65,5.25,3.92,2.18-.22,4.36-.47,6.53-.77C127.33,197.83,125.47,197,123.62,196.09Z"/><path class="cls-1" d="M123.57,81.7c1.86-.89,3.73-1.74,5.61-2.57-2.16-.3-4.33-.55-6.51-.77-1.76,1.28-3.52,2.58-5.25,3.92C119.46,82.06,121.51,81.86,123.57,81.7Z"/><path class="cls-1" d="M121.18,199.59c-1.9-1.39-3.79-2.82-5.65-4.29q-3.52-.42-7-1,2.46,3,5,5.82C116.07,200,118.63,199.83,121.18,199.59Z"/><path class="cls-1" d="M199.59,156.61c-1.4,1.9-2.82,3.79-4.29,5.65q-.42,3.53-1,7,3-2.46,5.82-5C200,161.72,199.83,159.16,199.59,156.61Z"/><path class="cls-1" d="M168.5,190.17q-2.35,2-4.76,3.94c2.18-.27,4.34-.59,6.49-.94,1.38-1.69,2.74-3.4,4.06-5.15C172.37,188.77,170.45,189.49,168.5,190.17Z"/><path class="cls-1" d="M196.09,154.22c-.16,2.06-.36,4.11-.58,6.15q2-2.6,3.92-5.25c-.22-2.17-.47-4.35-.77-6.52C197.83,150.49,197,152.36,196.09,154.22Z"/><path class="cls-1" d="M190.17,168.5c-.68,1.95-1.4,3.87-2.15,5.79,1.75-1.32,3.46-2.68,5.15-4.06.35-2.15.67-4.32.94-6.49C192.82,165.35,191.51,166.93,190.17,168.5Z"/><path class="cls-1" d="M106.08,192.94q-2.22-2.76-4.35-5.61c-2.2-.88-4.38-1.79-6.54-2.75,1.07,2.34,2.18,4.64,3.34,6.92Q102.28,192.3,106.08,192.94Z"/><path class="cls-1" d="M192.94,171.71q-2.76,2.22-5.61,4.35-1.32,3.3-2.75,6.54,3.49-1.6,6.92-3.34Q192.3,175.51,192.94,171.71Z"/><path class="cls-1" d="M182.6,184.58c-2.16,1-4.34,1.87-6.54,2.75q-2.13,2.85-4.35,5.61,3.79-.65,7.55-1.44C180.42,189.22,181.53,186.92,182.6,184.58Z"/><path class="cls-1" d="M180.76,180.76c-1.16,1.7-2.36,3.38-3.57,5q3-1.25,6-2.59,1.35-3,2.59-6C184.14,178.4,182.46,179.6,180.76,180.76Z"/><path class="cls-1" d="M202.11,140.3q-1.29,3.3-2.68,6.56c.34,2.35.63,4.69.88,7q2.24-3.14,4.33-6.35Q203.44,143.91,202.11,140.3Z"/><path class="cls-1" d="M87.62,109.29c.68-2,1.41-3.87,2.15-5.79-1.75,1.32-3.46,2.68-5.15,4.06-.35,2.15-.67,4.32-.94,6.49Q85.62,111.65,87.62,109.29Z"/><path class="cls-1" d="M84.85,106.08q2.76-2.22,5.61-4.35,1.32-3.3,2.75-6.54-3.49,1.61-6.92,3.34Q85.5,102.28,84.85,106.08Z"/><path class="cls-1" d="M81.7,123.57c.16-2.06.36-4.1.58-6.15-1.34,1.73-2.65,3.49-3.92,5.25.22,2.18.47,4.35.77,6.52C80,127.31,80.81,125.43,81.7,123.57Z"/><path class="cls-1" d="M97,180.76c-1.7-1.16-3.38-2.36-5-3.57.83,2,1.7,4,2.59,6q3,1.35,6,2.59C99.39,184.14,98.19,182.46,97,180.76Z"/><path class="cls-1" d="M78.2,121.18c1.4-1.9,2.82-3.79,4.29-5.65q.42-3.52,1-7-3,2.46-5.81,5C77.78,116.07,78,118.63,78.2,121.18Z"/><path class="cls-1" d="M108.5,83.45q3.51-.54,7-1c1.86-1.47,3.75-2.89,5.65-4.29-2.55-.24-5.11-.42-7.66-.57Q111,80.5,108.5,83.45Z"/><path class="cls-1" d="M95.19,93.21c2.16-1,4.34-1.87,6.54-2.75q2.13-2.85,4.35-5.61c-2.53.43-5,.92-7.55,1.44Q96.79,89.71,95.19,93.21Z"/><path class="cls-1" d="M109.29,87.62q2.35-2,4.76-3.94c-2.17.27-4.34.59-6.49.94-1.38,1.69-2.74,3.4-4.06,5.15Q106.38,88.65,109.29,87.62Z"/><path class="cls-1" d="M97,97q1.75-2.55,3.57-5-3,1.24-6,2.59c-.89,2-1.76,4-2.59,6C93.65,99.39,95.33,98.19,97,97Z"/><path class="cls-1" d="M87.62,168.5c-1.34-1.57-2.65-3.15-3.94-4.76.27,2.18.59,4.34.94,6.49,1.69,1.38,3.4,2.74,5.15,4.06C89,172.37,88.3,170.45,87.62,168.5Z"/><path class="cls-1" d="M93.21,182.6q-1.42-3.24-2.75-6.54-2.85-2.13-5.61-4.35.65,3.79,1.44,7.55Q89.71,181,93.21,182.6Z"/><path class="cls-1" d="M83.45,169.29q-.54-3.51-1-7c-1.47-1.86-2.89-3.75-4.29-5.65-.24,2.55-.42,5.11-.56,7.66Q80.49,166.83,83.45,169.29Z"/><path class="cls-1" d="M77.48,153.9c.25-2.35.55-4.69.89-7Q77,143.6,75.69,140.3q-1.35,3.6-2.53,7.25Q75.25,150.76,77.48,153.9Z"/><path class="cls-1" d="M79.69,138.9c-.38-2-.72-4.06-1-6.09-.85,2-1.65,4.05-2.43,6.09.78,2,1.58,4.07,2.43,6.09C79,143,79.31,140.92,79.69,138.9Z"/><path class="cls-1" d="M75.69,137.49q1.28-3.3,2.68-6.56c-.34-2.35-.64-4.69-.89-7q-2.24,3.14-4.33,6.35C74,132.67,74.79,135.09,75.69,137.49Z"/><path class="cls-1" d="M81.7,154.22c-.89-1.86-1.74-3.73-2.57-5.62-.3,2.17-.55,4.34-.77,6.52,1.28,1.77,2.58,3.52,3.92,5.25C82.06,158.33,81.86,156.28,81.7,154.22Z"/><path class="cls-1" d="M109.29,190.17q-2.91-1-5.79-2.15c1.32,1.75,2.68,3.46,4.06,5.15,2.15.35,4.32.67,6.49.94Q111.65,192.18,109.29,190.17Z"/><path class="cls-1" d="M91.9,77.64q-1.62,4.9-3,9.89c2.95-.78,5.93-1.48,8.93-2.12q2.08-4.09,4.35-8.07Q97.05,77.35,91.9,77.64Z"/><path class="cls-1" d="M75.15,138.9c-1-2.52-1.85-5-2.7-7.58q-2.4,3.74-4.63,7.57,2.24,3.84,4.63,7.58Q73.72,142.66,75.15,138.9Z"/><path class="cls-1" d="M198.1,138.9c.38,2,.72,4,1,6.09.85-2,1.65-4.05,2.43-6.09-.78-2-1.58-4.08-2.43-6.09C198.82,134.84,198.48,136.87,198.1,138.9Z"/><path class="cls-1" d="M77.32,122.4q-.41-4-.64-8-3.3,3-6.44,6.12,1.16,4.29,2.52,8.52C74.23,126.78,75.75,124.58,77.32,122.4Z"/><path class="cls-1" d="M77.32,155.39c-1.57-2.18-3.09-4.38-4.56-6.62-.91,2.82-1.75,5.67-2.52,8.52q3.15,3.14,6.44,6.12Q76.92,159.41,77.32,155.39Z"/><path class="cls-1" d="M93.82,93.82c1.11-2.45,2.25-4.87,3.45-7.27q-4.33.95-8.63,2.09-1.14,4.29-2.09,8.63Q90.15,95.47,93.82,93.82Z"/><path class="cls-1" d="M83.69,107q.65-4,1.46-7.91-4,2-7.81,4.25c0,3,.08,5.92.23,8.88Q80.57,109.57,83.69,107Z"/><path class="cls-1" d="M69.94,119.39q3.25-3.23,6.67-6.29-.24-4.59-.26-9.17-4.47,2.59-8.78,5.42C68.26,112.72,69.06,116.06,69.94,119.39Z"/><path class="cls-1" d="M62.35,128.82c1.54,3.07,3.18,6.09,4.89,9.08,1.54-2.63,3.15-5.24,4.82-7.8q-1.43-4.38-2.63-8.79Q65.79,125,62.35,128.82Z"/><path class="cls-1" d="M119.39,207.85q-3.23-3.25-6.3-6.68c-3.06.16-6.11.26-9.16.28q2.59,4.45,5.42,8.77C112.71,209.53,116.06,208.73,119.39,207.85Z"/><path class="cls-1" d="M122.41,200.48q-4,.39-8,.63,3,3.28,6.13,6.44c2.85-.77,5.7-1.61,8.52-2.52C126.79,203.56,124.58,202,122.41,200.48Z"/><path class="cls-1" d="M76.35,173.86q0-4.58.26-9.17-3.42-3.06-6.67-6.29c-.88,3.33-1.68,6.68-2.37,10Q71.88,171.28,76.35,173.86Z"/><path class="cls-1" d="M107,194.1c-2.65-.43-5.29-.92-7.91-1.45q2,3.94,4.25,7.8,4.44,0,8.88-.22Q109.57,197.22,107,194.1Z"/><path class="cls-1" d="M83.69,170.77q-3.12-2.55-6.12-5.22c-.15,3-.22,5.93-.23,8.88q3.85,2.22,7.81,4.25Q84.34,174.75,83.69,170.77Z"/><path class="cls-1" d="M102.21,200.45q-2.26-4-4.35-8.07c-3-.64-6-1.34-8.93-2.12q1.35,5,3,9.89Q97.05,200.44,102.21,200.45Z"/><path class="cls-1" d="M93.82,184q-3.67-1.65-7.27-3.45c.63,2.9,1.33,5.77,2.09,8.63q4.29,1.14,8.63,2.09C96.07,188.84,94.93,186.42,93.82,184Z"/><path class="cls-1" d="M69.43,156.48q1.2-4.41,2.63-8.78-2.5-3.85-4.82-7.81-2.56,4.49-4.89,9.08Q65.79,152.82,69.43,156.48Z"/><path class="cls-1" d="M170.77,83.69q4,.65,7.91,1.46-2-4-4.25-7.81c-3,0-5.92.08-8.88.23Q168.22,80.57,170.77,83.69Z"/><path class="cls-1" d="M128.82,215.44c3.07-1.54,6.1-3.18,9.08-4.89q-4-2.31-7.82-4.82c-2.91.94-5.83,1.83-8.77,2.64Q125,212,128.82,215.44Z"/><path class="cls-1" d="M107,83.69q2.55-3.12,5.22-6.12c-3-.15-5.92-.22-8.88-.23q-2.2,3.85-4.25,7.81Q103,84.34,107,83.69Z"/><path class="cls-1" d="M194.1,107q3.12,2.55,6.13,5.22.21-4.44.22-8.88-3.85-2.2-7.8-4.25C193.18,101.73,193.67,104.37,194.1,107Z"/><path class="cls-1" d="M200.31,123.89c-.25,2.35-.54,4.69-.88,7q1.4,3.25,2.68,6.56,1.33-3.6,2.53-7.25Q202.54,127,200.31,123.89Z"/><path class="cls-1" d="M201.11,114.38q-.24,4-.64,8c1.57,2.18,3.09,4.38,4.56,6.62q1.36-4.23,2.52-8.52Q204.4,117.37,201.11,114.38Z"/><path class="cls-1" d="M201.45,103.93q0,4.57-.27,9.17,3.42,3.08,6.67,6.29c.88-3.33,1.68-6.67,2.37-10Q205.92,106.51,201.45,103.93Z"/><path class="cls-1" d="M175.58,77.34q2.26,4,4.36,8.07c3,.64,6,1.34,8.92,2.12q-1.35-5-3-9.89Q180.74,77.36,175.58,77.34Z"/><path class="cls-1" d="M158.4,69.94q3.22,3.25,6.3,6.67c3.05-.16,6.11-.25,9.16-.26q-2.6-4.47-5.42-8.78C165.07,68.26,161.73,69.06,158.4,69.94Z"/><path class="cls-1" d="M121.31,69.43q4.41,1.2,8.79,2.63c2.56-1.67,5.17-3.28,7.8-4.82q-4.49-2.56-9.08-4.89Q125,65.79,121.31,69.43Z"/><path class="cls-1" d="M103.93,76.35q4.57,0,9.17.26,3.06-3.4,6.29-6.67-5-1.32-10-2.37Q106.51,71.88,103.93,76.35Z"/><path class="cls-1" d="M122.4,77.32c2.18-1.57,4.38-3.09,6.62-4.56-2.82-.91-5.67-1.74-8.52-2.52q-3.14,3.15-6.12,6.44C117.05,76.84,119.72,77.06,122.4,77.32Z"/><path class="cls-1" d="M155.4,77.32c2.67-.26,5.34-.48,8-.64q-3-3.3-6.12-6.44-4.29,1.16-8.52,2.52C151,74.23,153.21,75.75,155.4,77.32Z"/><path class="cls-1" d="M149,62.35q-4.6,2.32-9.08,4.89c2.63,1.54,5.24,3.15,7.8,4.82q4.38-1.43,8.79-2.63Q152.82,65.79,149,62.35Z"/><path class="cls-1" d="M138.89,75.15c2.52-1,5-1.85,7.58-2.7q-3.74-2.4-7.58-4.63-3.82,2.24-7.57,4.63Q135.13,73.72,138.89,75.15Z"/><path class="cls-1" d="M184,93.82q3.67,1.65,7.27,3.45-.94-4.33-2.09-8.63c-2.86-.76-5.73-1.46-8.63-2.09Q182.32,90.15,184,93.82Z"/><path class="cls-1" d="M110,88.85c.64-.37,1.28-.71,1.92-1.07-.71.24-1.42.47-2.12.72-.56.48-1.12,1-1.68,1.47Z"/><path class="cls-1" d="M99.32,95.49q2.07-1.38,4.19-2.71c1.22-1.13,2.46-2.25,3.7-3.35q-2.43.9-4.85,1.85Q100.82,93.37,99.32,95.49Z"/><path class="cls-1" d="M98,98,99.6,96.5l-1.85,1.25c-.42.61-.83,1.23-1.25,1.85Z"/><path class="cls-1" d="M111.9,86.73q2.37-.8,4.75-1.53,2.2-1.17,4.44-2.28c-1.72.16-3.44.33-5.16.53C114.57,84.52,113.23,85.62,111.9,86.73Z"/><path class="cls-1" d="M138.9,81.11c.73,0,1.46,0,2.19,0l-2.19-.44-2.2.44C137.43,81.13,138.16,81.11,138.9,81.11Z"/><path class="cls-1" d="M141.6,80.22c1.63.33,3.26.68,4.88,1,1.67.06,3.33.14,5,.25q-2.37-1.09-4.74-2.12C145,79.65,143.31,79.92,141.6,80.22Z"/><path class="cls-1" d="M89.43,107.21c1.1-1.24,2.22-2.48,3.35-3.7q1.34-2.12,2.71-4.19-2.13,1.5-4.21,3Q90.34,104.78,89.43,107.21Z"/><path class="cls-1" d="M126.32,81.52c1.66-.11,3.32-.19,5-.25,1.62-.37,3.25-.72,4.88-1-1.71-.3-3.42-.57-5.13-.82C129.47,80.08,127.9,80.79,126.32,81.52Z"/><path class="cls-1" d="M123.94,83.08l2.13-.54c-.75,0-1.49.09-2.24.15l-2,1Z"/><path class="cls-1" d="M123.89,77.48c2.34.25,4.69.55,7,.89q3.27-1.41,6.57-2.68-3.6-1.35-7.25-2.53Q127,75.25,123.89,77.48Z"/><path class="cls-1" d="M83.08,153.85c-.19-.71-.36-1.42-.54-2.13,0,.75.09,1.49.15,2.24.32.67.65,1.34,1,2C83.48,155.26,83.27,154.56,83.08,153.85Z"/><path class="cls-1" d="M86.73,165.89q-.8-2.37-1.54-4.75-1.16-2.22-2.27-4.44c.15,1.72.33,3.44.53,5.16C84.52,163.22,85.62,164.56,86.73,165.89Z"/><path class="cls-1" d="M80.22,136.19c.33-1.63.68-3.26,1-4.88.06-1.67.14-3.33.25-5q-1.09,2.37-2.12,4.74C79.65,132.77,79.92,134.48,80.22,136.19Z"/><path class="cls-1" d="M82.92,121.1q1.11-2.23,2.27-4.45.75-2.39,1.54-4.75c-1.11,1.33-2.21,2.67-3.28,4C83.25,117.65,83.07,119.37,82.92,121.1Z"/><path class="cls-1" d="M83.08,123.94c.19-.71.4-1.41.59-2.11-.33.66-.66,1.33-1,2-.06.75-.11,1.49-.15,2.24C82.72,125.36,82.89,124.65,83.08,123.94Z"/><path class="cls-1" d="M88.85,110,90,108.11c-.49.57-1,1.12-1.47,1.69-.25.7-.48,1.41-.72,2.12C88.14,111.28,88.48,110.64,88.85,110Z"/><path class="cls-1" d="M191.06,111.9q.8,2.37,1.54,4.75,1.16,2.22,2.27,4.45c-.15-1.73-.33-3.45-.53-5.17C193.27,114.58,192.17,113.23,191.06,111.9Z"/><path class="cls-1" d="M194.12,121.83c.2.7.4,1.4.59,2.11s.36,1.42.55,2.13l-.15-2.24Z"/><path class="cls-1" d="M87.53,88.93q-5,1.35-9.89,3-.28,5.14-.3,10.31,4-2.26,8.07-4.36C86.05,94.86,86.75,91.88,87.53,88.93Z"/><path class="cls-1" d="M191.67,117c-1.16-2.2-2.35-4.38-3.6-6.54s-2.54-4.28-3.86-6.38c-1.68-1.81-3.4-3.61-5.16-5.38s-3.57-3.48-5.38-5.16c-2.1-1.32-4.22-2.62-6.38-3.86s-4.34-2.44-6.54-3.6c-2.37-.73-4.75-1.43-7.16-2.08s-4.82-1.23-7.24-1.78c-2.48-.09-5-.15-7.45-.15s-5,.06-7.46.15q-3.63.83-7.24,1.78c-2.41.65-4.79,1.35-7.16,2.08-2.2,1.16-4.38,2.35-6.54,3.6s-4.28,2.54-6.38,3.86c-1.81,1.68-3.61,3.4-5.38,5.16s-3.48,3.57-5.16,5.38c-1.32,2.1-2.62,4.22-3.86,6.38s-2.44,4.34-3.6,6.54c-.73,2.37-1.43,4.75-2.08,7.16s-1.23,4.82-1.78,7.24c-.09,2.48-.15,5-.15,7.46s.06,5,.15,7.45q.83,3.63,1.78,7.24c.65,2.41,1.35,4.79,2.08,7.16,1.16,2.2,2.35,4.38,3.6,6.54s2.54,4.28,3.86,6.38c1.68,1.82,3.4,3.62,5.16,5.38s3.56,3.47,5.38,5.16c2.1,1.32,4.22,2.62,6.38,3.86s4.35,2.44,6.54,3.6c2.37.73,4.75,1.43,7.16,2.08s4.82,1.23,7.24,1.78c2.48.09,5,.15,7.46.15s5-.06,7.45-.15q3.63-.83,7.24-1.78c2.41-.65,4.79-1.35,7.16-2.08,2.19-1.16,4.38-2.35,6.54-3.6s4.28-2.54,6.38-3.86c1.82-1.69,3.62-3.4,5.38-5.16s3.48-3.56,5.16-5.38c1.32-2.1,2.62-4.22,3.86-6.38s2.44-4.34,3.6-6.54c.73-2.37,1.43-4.75,2.08-7.16s1.23-4.82,1.78-7.24c.09-2.48.15-5,.15-7.45s-.06-5-.15-7.46q-.83-3.63-1.78-7.24C193.1,121.79,192.4,119.41,191.67,117Z"/><path class="cls-1" d="M85.41,179.94q-4.09-2.08-8.07-4.36,0,5.16.3,10.32,4.9,1.6,9.89,3C86.75,185.91,86.05,182.93,85.41,179.94Z"/><path class="cls-1" d="M192.38,97.85q4.1,2.1,8.07,4.36,0-5.16-.3-10.31-4.91-1.62-9.89-3C191,91.88,191.74,94.86,192.38,97.85Z"/><path class="cls-1" d="M190.26,188.86q5-1.35,9.89-3,.28-5.16.3-10.32-4,2.26-8.07,4.36C191.74,182.93,191,185.91,190.26,188.86Z"/><path class="cls-1" d="M259.12,122.34a197.47,197.47,0,0,0,12.57-19,201,201,0,0,0-20.4-10.19A193.74,193.74,0,0,1,243,111,196.09,196.09,0,0,1,259.12,122.34Z"/><path class="cls-1" d="M188.94,110c.37.64.72,1.28,1.07,1.92-.23-.71-.47-1.42-.72-2.12-.48-.57-1-1.12-1.47-1.68Z"/><path class="cls-1" d="M167.79,88.85,169.67,90c-.56-.49-1.11-1-1.68-1.47-.7-.25-1.41-.48-2.12-.72C166.51,88.14,167.15,88.48,167.79,88.85Z"/><path class="cls-1" d="M170.58,89.43c1.24,1.1,2.48,2.22,3.7,3.35q2.11,1.34,4.19,2.71-1.5-2.13-3-4.21Q173,90.34,170.58,89.43Z"/><path class="cls-1" d="M156.7,82.92c1.48.74,3,1.5,4.44,2.27q2.38.75,4.75,1.54c-1.33-1.11-2.68-2.21-4-3.28C160.14,83.25,158.42,83.08,156.7,82.92Z"/><path class="cls-1" d="M179.76,98l1.53,1.57c-.42-.62-.83-1.24-1.25-1.85l-1.85-1.25Z"/><path class="cls-1" d="M153.85,83.08l2.11.59-2-1-2.23-.15Z"/><path class="cls-1" d="M88.85,167.79c-.37-.64-.71-1.28-1.07-1.92.24.71.47,1.42.72,2.12.48.57,1,1.13,1.47,1.69Z"/><path class="cls-1" d="M182.3,99.32q1.38,2.07,2.71,4.19c1.13,1.22,2.25,2.46,3.35,3.7q-.9-2.43-1.85-4.85Q184.43,100.82,182.3,99.32Z"/><path class="cls-1" d="M81.52,151.47c-.11-1.66-.19-3.32-.25-5-.37-1.62-.72-3.25-1-4.88-.3,1.71-.57,3.42-.82,5.13C80.08,148.32,80.79,149.89,81.52,151.47Z"/><path class="cls-1" d="M196.27,126.32c.11,1.66.19,3.32.25,5,.37,1.62.72,3.25,1,4.88.3-1.71.57-3.42.82-5.13Q197.37,128.69,196.27,126.32Z"/><path class="cls-1" d="M195.51,117.42c.22,2,.42,4.09.58,6.15.89,1.86,1.74,3.74,2.57,5.62.3-2.17.55-4.34.77-6.52C198.16,120.91,196.85,119.15,195.51,117.42Z"/><path class="cls-1" d="M194.34,108.5q.54,3.51,1,7c1.47,1.86,2.89,3.75,4.29,5.65.24-2.55.42-5.11.57-7.66Q197.3,111,194.34,108.5Z"/><path class="cls-1" d="M190.17,109.29q2,2.35,3.94,4.76c-.27-2.17-.59-4.34-.94-6.49-1.69-1.38-3.4-2.74-5.15-4.06C188.76,105.42,189.49,107.34,190.17,109.29Z"/><path class="cls-1" d="M197.57,141.6c-.33,1.63-.68,3.26-1,4.88-.06,1.67-.14,3.33-.25,5,.73-1.58,1.44-3.15,2.12-4.74C198.14,145,197.87,143.31,197.57,141.6Z"/><path class="cls-1" d="M194.87,156.7q-1.11,2.22-2.27,4.44-.75,2.38-1.54,4.75c1.11-1.33,2.21-2.67,3.28-4C194.54,160.14,194.72,158.42,194.87,156.7Z"/><path class="cls-1" d="M194.71,153.85c-.19.71-.39,1.41-.59,2.12l1-2,.15-2.24C195.07,152.43,194.9,153.14,194.71,153.85Z"/><path class="cls-1" d="M184.58,95.19q1.42,3.24,2.75,6.54,2.85,2.13,5.61,4.35-.65-3.8-1.44-7.55Q188.08,96.79,184.58,95.19Z"/><path class="cls-1" d="M196.68,138.9c0,.73,0,1.46,0,2.19.15-.73.3-1.46.44-2.19-.14-.74-.29-1.47-.44-2.2C196.66,137.43,196.68,138.16,196.68,138.9Z"/><path class="cls-1" d="M140.3,75.69q3.3,1.28,6.57,2.68,3.51-.51,7-.89-3.14-2.24-6.35-4.32Q143.91,74.35,140.3,75.69Z"/><path class="cls-1" d="M180.76,97c1.7,1.16,3.38,2.36,5,3.57q-1.25-3-2.59-6-3-1.35-6-2.59C178.4,93.65,179.6,95.33,180.76,97Z"/><path class="cls-1" d="M154.22,81.7c2.06.16,4.11.36,6.15.58-1.73-1.34-3.49-2.64-5.25-3.92-2.18.22-4.35.47-6.52.77C150.49,80,152.36,80.81,154.22,81.7Z"/><path class="cls-1" d="M138.9,79.69c2-.38,4-.72,6.09-1-2-.84-4.06-1.65-6.1-2.43-2,.78-4.07,1.58-6.09,2.43C134.84,79,136.87,79.31,138.9,79.69Z"/><path class="cls-1" d="M171.71,84.85q2.22,2.76,4.35,5.61c2.2.88,4.38,1.79,6.54,2.75q-1.6-3.49-3.34-6.92C176.76,85.77,174.24,85.28,171.71,84.85Z"/><path class="cls-1" d="M156.61,78.2c1.9,1.4,3.79,2.82,5.65,4.29q3.53.42,7,1-2.46-3-5-5.81C161.72,77.78,159.16,78,156.61,78.2Z"/><path class="cls-1" d="M168.5,87.62c1.95.68,3.87,1.4,5.79,2.15-1.32-1.75-2.68-3.46-4.06-5.15-2.15-.35-4.31-.67-6.49-.94Q166.14,85.62,168.5,87.62Z"/><path class="cls-1" d="M107.21,188.36c-1.24-1.1-2.48-2.22-3.7-3.35q-2.12-1.33-4.19-2.71,1.5,2.13,3,4.21Q104.78,187.46,107.21,188.36Z"/><path class="cls-1" d="M121.07,194.87q-2.22-1.11-4.42-2.27c-1.59-.49-3.17-1-4.75-1.54,1.33,1.11,2.68,2.21,4,3.28C117.64,194.54,119.36,194.71,121.07,194.87Z"/><path class="cls-1" d="M123.94,194.71l-2.11-.59,2,1,2.27.15C125.39,195.07,124.66,194.91,123.94,194.71Z"/><path class="cls-1" d="M138.9,196.68c-.74,0-1.47,0-2.2,0l2.2.44,2.19-.44Z"/><path class="cls-1" d="M136.17,197.57c-1.62-.32-3.24-.68-4.86-1-1.67-.06-3.33-.14-5-.25q2.37,1.09,4.74,2.12C132.77,198.14,134.47,197.87,136.17,197.57Z"/><path class="cls-1" d="M110,188.94l-1.88-1.12c.56.49,1.11,1,1.68,1.47L112,190C111.31,189.66,110.65,189.31,110,188.94Z"/><path class="cls-1" d="M98,179.76l-1.53-1.57c.42.62.83,1.24,1.25,1.85l1.85,1.25Z"/><path class="cls-1" d="M95.49,178.47q-1.38-2.07-2.71-4.19c-1.13-1.22-2.25-2.46-3.35-3.7q.9,2.43,1.85,4.85Q93.37,177,95.49,178.47Z"/><path class="cls-1" d="M165.89,191.06c-1.58.53-3.16,1.05-4.75,1.54q-2.2,1.16-4.42,2.27c1.72-.16,3.43-.33,5.14-.53C163.22,193.27,164.56,192.17,165.89,191.06Z"/><path class="cls-1" d="M179.76,179.76l-1.57,1.53L180,180c.42-.61.84-1.23,1.25-1.85Z"/><path class="cls-1" d="M151.47,196.27c-1.66.11-3.32.19-5,.25-1.62.37-3.24.73-4.86,1,1.7.3,3.4.57,5.11.82C148.32,197.71,149.89,197,151.47,196.27Z"/><path class="cls-1" d="M188.36,170.58c-1.1,1.24-2.22,2.48-3.35,3.7q-1.33,2.11-2.71,4.19,2.13-1.5,4.21-3Q187.46,173,188.36,170.58Z"/><path class="cls-1" d="M178.47,182.3q-2.07,1.38-4.19,2.71c-1.22,1.13-2.46,2.25-3.7,3.35q2.43-.9,4.85-1.85Q177,184.43,178.47,182.3Z"/><path class="cls-1" d="M167.79,188.94c-.65.37-1.31.72-2,1.09l2.17-.74c.57-.48,1.13-1,1.69-1.47Z"/><path class="cls-1" d="M153.85,194.71c-.72.2-1.45.36-2.17.55l2.28-.15,2-1Z"/><path class="cls-1" d="M188.94,167.79l-1.12,1.89c.49-.56,1-1.12,1.47-1.69.25-.7.49-1.41.72-2.12C189.66,166.51,189.31,167.15,188.94,167.79Z"/><path class="cls-1" d="M81.11,138.9c0-.74,0-1.47,0-2.2-.15.73-.3,1.46-.44,2.2.14.73.29,1.46.44,2.19C81.13,140.36,81.11,139.63,81.11,138.9Z"/><path class="cls-1" d="M62.67,214.1q-.29-8.44.16-16.85c-5.48-1.16-10.92-2.54-16.31-4.18q-2.15,9.51-3.35,19.28Q52.9,213.71,62.67,214.1Z"/><path class="cls-1" d="M214.1,215.13q-3.25.12-6.51.12c-3.45,0-6.89-.12-10.32-.3q-1.74,8.22-4.21,16.31,9.52,2.16,19.29,3.37Q213.71,224.88,214.1,215.13Z"/><path class="cls-1" d="M84.73,231.26c-1.64-5.38-3-10.83-4.21-16.31-3.43.18-6.87.3-10.32.3q-3.26,0-6.51-.12.39,9.75,1.75,19.49A193.85,193.85,0,0,0,84.73,231.26Z"/><path class="cls-1" d="M95.8,213.54q-7.1.94-14.26,1.36Q83.26,223,85.7,231q8.13-1.89,16-4.46Q98.53,220.17,95.8,213.54Z"/><path class="cls-1" d="M35.28,165.91q4-7.46,8.55-14.5-6.24-5.61-12-11.79a195.18,195.18,0,0,0-12.56,15Q27,160.7,35.28,165.91Z"/><path class="cls-1" d="M55.64,161.2q-5.7-4.33-11-9.11-4.53,7-8.46,14.34,7.08,4.41,14.5,8.19Q52.88,167.83,55.64,161.2Z"/><path class="cls-1" d="M64.25,182q-6.63-2.73-13-5.94-2.58,7.9-4.46,16,8,2.43,16.12,4.16Q63.3,189.09,64.25,182Z"/><path class="cls-1" d="M45.8,191.8q1.91-8.22,4.51-16.21-7.48-3.81-14.65-8.28a194.91,194.91,0,0,0-8.24,17.76A193.78,193.78,0,0,0,45.8,191.8Z"/><path class="cls-1" d="M110.48,242.14Q106,235,102.2,227.48q-8,2.6-16.21,4.51a192.78,192.78,0,0,0,6.73,18.38A192.18,192.18,0,0,0,110.48,242.14Z"/><path class="cls-1" d="M191.81,232c-5.48-1.27-10.9-2.78-16.22-4.51q-3.81,7.49-8.28,14.66a192.18,192.18,0,0,0,17.76,8.23A195.62,195.62,0,0,0,191.81,232Z"/><path class="cls-1" d="M116.59,222.15q-6.61,2.76-13.42,5,3.77,7.41,8.19,14.5,7.36-3.93,14.34-8.46Q120.95,227.85,116.59,222.15Z"/><path class="cls-1" d="M161.2,222.15q-4.35,5.7-9.11,11,7,4.53,14.34,8.46,4.41-7.08,8.19-14.5Q167.83,224.91,161.2,222.15Z"/><path class="cls-1" d="M182,213.54q-2.73,6.63-5.94,13,7.9,2.58,16,4.46,2.43-8,4.16-16.13Q189.09,214.48,182,213.54Z"/><path class="cls-1" d="M138.17,246q-6.16-5.76-11.79-12-7,4.57-14.5,8.55a195,195,0,0,0,11.27,16A195,195,0,0,0,138.17,246Z"/><path class="cls-1" d="M150.56,233.4q-6-3.93-11.66-8.31-5.68,4.36-11.67,8.31,5.56,6.18,11.67,11.88Q145,239.6,150.56,233.4Z"/><path class="cls-1" d="M165.91,242.51q-7.46-4-14.5-8.55-5.62,6.24-11.79,12a193.29,193.29,0,0,0,15,12.56Q160.7,250.78,165.91,242.51Z"/><path class="cls-1" d="M80.32,214q-1.45-7-2.37-14.13-7.11-.92-14.13-2.38-.43,8.31-.15,16.66Q72,214.41,80.32,214Z"/><path class="cls-1" d="M44.39,150.56q3.93-6,8.31-11.66-4.37-5.68-8.31-11.67-6.18,5.56-11.88,11.67Q38.21,145,44.39,150.56Z"/><path class="cls-1" d="M111.88,35.28q7.45,4,14.5,8.55,5.63-6.24,11.79-12a195,195,0,0,0-15-12.56A195,195,0,0,0,111.88,35.28Z"/><path class="cls-1" d="M127.23,44.39q6,3.95,11.67,8.31,5.67-4.37,11.66-8.31Q145,38.21,138.9,32.51,132.8,38.21,127.23,44.39Z"/><path class="cls-1" d="M86,45.8q8.22,1.92,16.21,4.51,3.81-7.48,8.28-14.65a194.91,194.91,0,0,0-17.76-8.24A193.78,193.78,0,0,0,86,45.8Z"/><path class="cls-1" d="M139.62,31.82q6.16,5.76,11.79,12,7.05-4.57,14.5-8.55-5.21-8.25-11.26-16A193.29,193.29,0,0,0,139.62,31.82Z"/><path class="cls-1" d="M95.8,64.25q2.73-6.63,5.94-13-7.9-2.58-16-4.46-2.43,8-4.16,16.12Q88.7,63.3,95.8,64.25Z"/><path class="cls-1" d="M167.31,35.66q4.45,7.16,8.28,14.65c5.32-1.73,10.74-3.23,16.22-4.51q-2.9-9.31-6.74-18.38A194.91,194.91,0,0,0,167.31,35.66Z"/><path class="cls-1" d="M161.2,55.64q6.62-2.76,13.42-5-3.76-7.41-8.19-14.5-7.37,3.93-14.34,8.46Q156.84,49.94,161.2,55.64Z"/><path class="cls-1" d="M116.59,55.64q4.35-5.7,9.11-11-7-4.53-14.34-8.46-4.41,7.08-8.19,14.5Q110,52.88,116.59,55.64Z"/><path class="cls-1" d="M55.64,116.59q-2.76-6.61-5-13.42-7.41,3.77-14.5,8.19,3.93,7.36,8.46,14.34Q49.94,120.95,55.64,116.59Z"/><path class="cls-1" d="M35.66,110.48q7.16-4.45,14.65-8.28-2.6-8-4.51-16.21a193.78,193.78,0,0,0-18.38,6.73A194.91,194.91,0,0,0,35.66,110.48Z"/><path class="cls-1" d="M63.69,62.67q8.44-.29,16.84.16,1.74-8.22,4.2-16.3-9.53-2.16-19.29-3.37Q64.08,52.91,63.69,62.67Z"/><path class="cls-1" d="M31.82,138.17q5.76-6.16,12-11.79-4.57-7-8.55-14.5a195,195,0,0,0-16,11.27A195,195,0,0,0,31.82,138.17Z"/><path class="cls-1" d="M63.82,80.32Q70.84,78.86,78,78q.92-7.11,2.37-14.13-8.31-.43-16.65-.15Q63.38,72,63.82,80.32Z"/><path class="cls-1" d="M43.16,65.44q1.22,9.77,3.37,19.29,8.07-2.46,16.3-4.2-.45-8.4-.16-16.84Q52.92,64.08,43.16,65.44Z"/><path class="cls-1" d="M64.25,95.8q-.95-7.1-1.37-14.26-8.13,1.72-16.12,4.16,1.89,8.13,4.46,16Q57.63,98.53,64.25,95.8Z"/><path class="cls-1" d="M122.34,18.67a197.47,197.47,0,0,0-19-12.57A198.91,198.91,0,0,0,93.12,26.5,193.74,193.74,0,0,1,111,34.81,196.09,196.09,0,0,1,122.34,18.67Z"/><path class="cls-1" d="M27.06,186a199.12,199.12,0,0,0-7.23,21.65,200.34,200.34,0,0,0,22.35,4.56,193.8,193.8,0,0,1,3.39-19.43A196.55,196.55,0,0,1,27.06,186Z"/><path class="cls-1" d="M43.06,213.33a197.74,197.74,0,0,0-1.38,22.78,199.66,199.66,0,0,0,22.76-1.37q-1.36-9.83-1.74-19.65A197,197,0,0,1,43.06,213.33Z"/><path class="cls-1" d="M65.59,235.62A198.43,198.43,0,0,0,70.16,258a199.46,199.46,0,0,0,21.63-7.22A195.72,195.72,0,0,1,85,232.22,196,196,0,0,1,65.59,235.62Z"/><path class="cls-1" d="M93.12,251.29a198.91,198.91,0,0,0,10.19,20.4,197.47,197.47,0,0,0,19-12.57A196.09,196.09,0,0,1,111,243,191.16,191.16,0,0,1,93.12,251.29Z"/><path class="cls-1" d="M18.67,155.45a197.47,197.47,0,0,0-12.57,19,198.91,198.91,0,0,0,20.4,10.19,195,195,0,0,1,8.31-17.88A196.09,196.09,0,0,1,18.67,155.45Z"/><path class="cls-1" d="M26.5,93.12A198.91,198.91,0,0,0,6.1,103.31a197.47,197.47,0,0,0,12.57,19A196.09,196.09,0,0,1,34.81,111,193.74,193.74,0,0,1,26.5,93.12Z"/><path class="cls-1" d="M123.77,259.31a199.21,199.21,0,0,0,15.13,17.07A200.81,200.81,0,0,0,154,259.31a195.79,195.79,0,0,1-15.12-12.65A196,196,0,0,1,123.77,259.31Z"/><path class="cls-1" d="M42.18,65.59a198.14,198.14,0,0,0-22.35,4.57,201.66,201.66,0,0,0,7.22,21.63A193.9,193.9,0,0,1,45.57,85,193.8,193.8,0,0,1,42.18,65.59Z"/><path class="cls-1" d="M18.48,123.77A197.58,197.58,0,0,0,1.42,138.9,199.16,199.16,0,0,0,18.48,154,195.79,195.79,0,0,1,31.13,138.9,196,196,0,0,1,18.48,123.77Z"/><path class="cls-1" d="M251.29,184.67a198.91,198.91,0,0,0,20.4-10.19,197.47,197.47,0,0,0-12.57-19A196.09,196.09,0,0,1,243,166.79,195,195,0,0,1,251.29,184.67Z"/><path class="cls-1" d="M155.45,259.12a197.47,197.47,0,0,0,19,12.57,198.91,198.91,0,0,0,10.19-20.4A195,195,0,0,1,166.79,243,196.09,196.09,0,0,1,155.45,259.12Z"/><path class="cls-1" d="M246.66,138.9A195.79,195.79,0,0,1,259.31,154a200.81,200.81,0,0,0,17.07-15.12,199.21,199.21,0,0,0-17.07-15.13A196,196,0,0,1,246.66,138.9Z"/><path class="cls-1" d="M186,250.74A199.63,199.63,0,0,0,207.64,258a200.63,200.63,0,0,0,4.56-22.34,196,196,0,0,1-19.42-3.4A195.72,195.72,0,0,1,186,250.74Z"/><path class="cls-1" d="M213.35,234.74a199.49,199.49,0,0,0,22.75,1.36,199.84,199.84,0,0,0-1.36-22.77q-9.83,1.38-19.65,1.76Q214.72,224.9,213.35,234.74Z"/><path class="cls-1" d="M235.62,212.2A200.63,200.63,0,0,0,258,207.64,199.12,199.12,0,0,0,250.73,186a196.55,196.55,0,0,1-18.51,6.78A196.71,196.71,0,0,1,235.62,212.2Z"/><path class="cls-1" d="M242.14,167.31q-7.17,4.45-14.66,8.28,2.6,8,4.51,16.21a193.78,193.78,0,0,0,18.38-6.73A194.84,194.84,0,0,0,242.14,167.31Z"/><path class="cls-1" d="M246,139.62q-5.76,6.16-12,11.79,4.57,7.05,8.55,14.5,8.25-5.21,16-11.26A195.18,195.18,0,0,0,246,139.62Z"/><path class="cls-1" d="M64.44,43.05a199.49,199.49,0,0,0-22.75-1.36,199.49,199.49,0,0,0,1.36,22.75q9.83-1.36,19.65-1.74Q63.08,52.88,64.44,43.05Z"/><path class="cls-1" d="M233.4,127.23q-3.93,6-8.31,11.67,4.36,5.67,8.31,11.66,6.18-5.56,11.89-11.66Q239.59,132.8,233.4,127.23Z"/><path class="cls-1" d="M242.51,111.88q-4,7.45-8.55,14.5,6.24,5.63,12,11.79a195,195,0,0,0,12.56-15A195,195,0,0,0,242.51,111.88Z"/><path class="cls-1" d="M234.63,212.35a193,193,0,0,0-3.37-19.27q-8.07,2.44-16.3,4.17.45,8.4.16,16.85Q224.87,213.71,234.63,212.35Z"/><path class="cls-1" d="M214,197.46q-7,1.46-14.12,2.38-.93,7.11-2.38,14.13,8.31.43,16.65.15Q214.41,205.78,214,197.46Z"/><path class="cls-1" d="M213.54,182q.94,7.09,1.37,14.26,8.13-1.73,16.12-4.16-1.89-8.13-4.46-16Q220.17,179.26,213.54,182Z"/><path class="cls-1" d="M222.15,161.2q2.76,6.62,5,13.42,7.41-3.76,14.5-8.19-3.93-7.37-8.46-14.34Q227.85,156.86,222.15,161.2Z"/><path class="cls-1" d="M154,18.48A199.16,199.16,0,0,0,138.9,1.42a197.58,197.58,0,0,0-15.13,17.06A196.07,196.07,0,0,1,138.9,31.14,195.91,195.91,0,0,1,154,18.48Z"/><path class="cls-1" d="M182,64.25q7.09-.95,14.26-1.37-1.73-8.13-4.16-16.12-8.13,1.89-16,4.46Q179.26,57.63,182,64.25Z"/><path class="cls-1" d="M91.79,27.05a201.66,201.66,0,0,0-21.63-7.22,198.14,198.14,0,0,0-4.57,22.35A193.11,193.11,0,0,1,85,45.57,195.72,195.72,0,0,1,91.79,27.05Z"/><path class="cls-1" d="M234.74,64.44a199.66,199.66,0,0,0,1.37-22.76,199.66,199.66,0,0,0-22.76,1.37q1.36,9.83,1.74,19.65Q224.91,63.08,234.74,64.44Z"/><path class="cls-1" d="M184.67,26.5A198.91,198.91,0,0,0,174.48,6.1a197.47,197.47,0,0,0-19,12.57,196.09,196.09,0,0,1,11.34,16.14A195,195,0,0,1,184.67,26.5Z"/><path class="cls-1" d="M250.74,91.79A201.66,201.66,0,0,0,258,70.16a198.43,198.43,0,0,0-22.34-4.57A196.71,196.71,0,0,1,232.22,85,192.91,192.91,0,0,1,250.74,91.79Z"/><path class="cls-1" d="M212.2,42.18a200.34,200.34,0,0,0-4.56-22.35A201.83,201.83,0,0,0,186,27.05a195.72,195.72,0,0,1,6.78,18.52A193.11,193.11,0,0,1,212.2,42.18Z"/><path class="cls-1" d="M198.82,200q-6.07.76-12.19,1.13-1.95,5.82-4.25,11.5,7,.93,14.09,1.33Q197.9,207,198.82,200Z"/><path class="cls-1" d="M200,79q.75,6.07,1.13,12.19,5.82,1.95,11.49,4.26.93-7,1.33-14.1C209.3,80.37,204.64,79.58,200,79Z"/><path class="cls-1" d="M157.59,69.12c3.4-.9,6.81-1.73,10.25-2.45q-3.33-5-7-9.81-5.55,2.34-10.94,5Q153.86,65.39,157.59,69.12Z"/><path class="cls-1" d="M161.82,56.46c2.46,3.26,4.83,6.59,7.08,10q6-1.23,12.08-2.07-2.72-6.54-5.89-12.87Q168.36,53.76,161.82,56.46Z"/><path class="cls-1" d="M138.9,66.66q4.56-2.62,9.26-5-4.51-4-9.26-7.67-4.76,3.69-9.27,7.67Q134.32,64,138.9,66.66Z"/><path class="cls-1" d="M190,87.82q5.1,1.37,10.1,3-.37-6-1.12-12-6-.75-12-1.12Q188.61,82.72,190,87.82Z"/><path class="cls-1" d="M175,76.34c3.52,0,7,.09,10.54.29q-1.92-5.72-4.19-11.28-6,.81-11.86,2Q172.38,71.77,175,76.34Z"/><path class="cls-1" d="M117.53,56c3.76,1.59,7.48,3.29,11.13,5.12q4.59-4.06,9.43-7.82-5.61-4.32-11.54-8.21Q121.84,50.43,117.53,56Z"/><path class="cls-1" d="M182.38,65.2q2.3,5.68,4.25,11.49,6.12.38,12.19,1.14-.91-7-2.35-14Q189.39,64.28,182.38,65.2Z"/><path class="cls-1" d="M139.7,53.34q4.85,3.75,9.43,7.82,5.49-2.74,11.13-5.12-4.31-5.61-9-10.91Q145.32,49,139.7,53.34Z"/><path class="cls-1" d="M120.2,69.13q3.73-3.73,7.65-7.25-5.38-2.68-10.94-5-3.63,4.79-7,9.8Q115.11,67.77,120.2,69.13Z"/><path class="cls-1" d="M65.2,95.42c3.79-1.54,7.61-3,11.49-4.26Q77.07,85,77.82,79c-4.67.61-9.33,1.4-13.95,2.35Q64.28,88.4,65.2,95.42Z"/><path class="cls-1" d="M56.46,116c3.26-2.46,6.59-4.83,10-7.08-.82-4-1.5-8-2.07-12.07q-6.53,2.7-12.87,5.88Q53.76,109.44,56.46,116Z"/><path class="cls-1" d="M76.34,102.78c0-3.52.09-7,.29-10.54q-5.72,1.92-11.28,4.19c.54,4,1.22,7.93,2,11.86Q71.77,105.41,76.34,102.78Z"/><path class="cls-1" d="M79,77.83q6.07-.77,12.19-1.14,1.95-5.81,4.26-11.49-7-.92-14.1-1.33Q79.9,70.8,79,77.83Z"/><path class="cls-1" d="M96.81,64.4q6.07.84,12.08,2.06c2.25-3.41,4.62-6.74,7.08-10q-6.54-2.72-13.27-4.93Q99.52,57.85,96.81,64.4Z"/><path class="cls-1" d="M102.78,76.34q2.64-4.56,5.51-9c-3.93-.79-7.89-1.47-11.86-2q-2.27,5.57-4.19,11.28C95.75,76.43,99.26,76.34,102.78,76.34Z"/><path class="cls-1" d="M156.48,208.37c-2.94-.81-5.86-1.7-8.77-2.64q-3.86,2.51-7.82,4.82c3,1.71,6,3.35,9.08,4.89Q152.82,212,156.48,208.37Z"/><path class="cls-1" d="M185.9,200.15q1.6-4.91,3-9.89c-3,.78-5.93,1.48-8.92,2.12q-2.08,4.1-4.36,8.07Q180.74,200.44,185.9,200.15Z"/><path class="cls-1" d="M194.1,170.77c-.43,2.65-.92,5.29-1.45,7.91q3.94-2,7.8-4.25c0-3-.08-5.92-.22-8.88Q197.22,168.22,194.1,170.77Z"/><path class="cls-1" d="M173.86,201.45c-3.05,0-6.1-.12-9.16-.28q-3.07,3.42-6.3,6.68c3.33.88,6.68,1.68,10,2.37Q171.28,205.92,173.86,201.45Z"/><path class="cls-1" d="M184,184q-1.65,3.67-3.45,7.27c2.9-.63,5.77-1.33,8.63-2.09.76-2.86,1.46-5.73,2.09-8.63Q187.64,182.32,184,184Z"/><path class="cls-1" d="M170.77,194.1q-2.55,3.12-5.22,6.12c3,.15,5.93.22,8.88.23q2.22-3.85,4.25-7.8C176.06,193.18,173.42,193.67,170.77,194.1Z"/><path class="cls-1" d="M155.38,200.48c-2.17,1.56-4.38,3.08-6.61,4.55,2.82.91,5.67,1.75,8.52,2.52q3.14-3.15,6.13-6.44C160.74,201,158.06,200.75,155.38,200.48Z"/><path class="cls-1" d="M193.06,46.53q2.46,8.07,4.2,16.3,8.4-.45,16.84-.16-.39-9.75-1.75-19.5A193.85,193.85,0,0,0,193.06,46.53Z"/><path class="cls-1" d="M69.12,120.2c-.9-3.4-1.73-6.81-2.45-10.25q-5,3.33-9.81,7,2.34,5.55,5,10.94Q65.39,123.94,69.12,120.2Z"/><path class="cls-1" d="M213.4,96.82q-.84,6.06-2.07,12.07c3.41,2.25,6.74,4.62,10,7.08q2.71-6.54,4.94-13.26Q219.94,99.52,213.4,96.82Z"/><path class="cls-1" d="M211.12,110c-.72,3.44-1.55,6.85-2.45,10.25q3.72,3.73,7.24,7.65,2.68-5.38,5-10.94Q216.13,113.28,211.12,110Z"/><path class="cls-1" d="M201.45,102.78q4.58,2.64,9,5.51,1.2-5.9,2-11.86-5.56-2.27-11.28-4.19C201.36,95.75,201.45,99.26,201.45,102.78Z"/><path class="cls-1" d="M208.36,121.31q-1.2,4.41-2.63,8.79c1.67,2.56,3.28,5.17,4.82,7.8q2.56-4.47,4.89-9.08Q212,125,208.36,121.31Z"/><path class="cls-1" d="M215.44,149c-1.54-3.07-3.18-6.09-4.89-9.08q-2.31,3.95-4.82,7.81,1.43,4.37,2.63,8.78Q212,152.82,215.44,149Z"/><path class="cls-1" d="M200.47,155.39q.41,4,.64,8,3.3-3,6.44-6.12c-.77-2.85-1.61-5.7-2.52-8.52C203.56,151,202,153.21,200.47,155.39Z"/><path class="cls-1" d="M207.85,158.4q-3.25,3.22-6.67,6.29.24,4.59.27,9.17,4.45-2.6,8.77-5.42C209.53,165.08,208.73,161.73,207.85,158.4Z"/><path class="cls-1" d="M202.64,138.9c1,2.51,1.85,5,2.7,7.58q2.4-3.75,4.63-7.58-2.24-3.84-4.63-7.58C204.49,133.86,203.59,136.38,202.64,138.9Z"/><path class="cls-1" d="M87.82,87.82q1.37-5.1,3-10.1-6,.38-12,1.12-.75,6-1.12,12Q82.72,89.19,87.82,87.82Z"/><path class="cls-1" d="M190,190q-1.36,5.1-3,10.1,6-.37,12-1.12.75-6,1.12-12Q195.08,188.61,190,190Z"/><path class="cls-1" d="M212.59,182.38q-5.67,2.3-11.49,4.25-.37,6.12-1.13,12.19c4.67-.61,9.33-1.4,13.95-2.35Q213.52,189.39,212.59,182.38Z"/><path class="cls-1" d="M201.45,175c0,3.52-.09,7-.29,10.54q5.72-1.92,11.28-4.19-.81-6-2-11.86Q206,172.38,201.45,175Z"/><path class="cls-1" d="M208.67,157.59c.9,3.4,1.73,6.82,2.45,10.25q5-3.33,9.81-7-2.34-5.55-5-10.94Q212.4,153.86,208.67,157.59Z"/><path class="cls-1" d="M221.33,161.82c-3.26,2.46-6.59,4.83-10,7.08q1.23,6,2.07,12.08,6.53-2.72,12.87-5.89Q224,168.36,221.33,161.82Z"/><path class="cls-1" d="M181,213.39q-6.07-.84-12.08-2.06c-2.25,3.41-4.62,6.74-7.08,10q6.54,2.71,13.27,4.94Q178.27,219.94,181,213.39Z"/><path class="cls-1" d="M175,201.46c-1.75,3-3.59,6-5.5,9q5.9,1.2,11.86,2,2.26-5.58,4.19-11.29C182,201.34,178.53,201.46,175,201.46Z"/><path class="cls-1" d="M138.9,202.65q-3.78,1.42-7.59,2.68,3.75,2.41,7.59,4.64,3.84-2.24,7.58-4.64Q142.67,204.07,138.9,202.65Z"/><path class="cls-1" d="M227.16,103.17q-2.25,6.8-5,13.42,5.7,4.35,11,9.11,4.53-7,8.46-14.34Q234.58,107,227.16,103.17Z"/><path class="cls-1" d="M215.12,63.69q.28,8.44-.16,16.84,8.22,1.74,16.3,4.2a193.85,193.85,0,0,0,3.36-19.29Q224.89,64.08,215.12,63.69Z"/><path class="cls-1" d="M213.54,95.8q6.63,2.73,13,5.94,2.58-7.9,4.46-16-8-2.43-16.12-4.16Q214.49,88.7,213.54,95.8Z"/><path class="cls-1" d="M224.46,139.7q-3.77,4.85-7.83,9.43,2.75,5.49,5.12,11.13,5.61-4.31,10.91-9Q228.76,145.32,224.46,139.7Z"/><path class="cls-1" d="M197.47,63.82q1.46,7,2.38,14.13,7.1.92,14.12,2.37.43-8.31.15-16.65Q205.78,63.38,197.47,63.82Z"/><path class="cls-1" d="M232,86q-1.91,8.22-4.51,16.21,7.49,3.81,14.66,8.28a194.84,194.84,0,0,0,8.23-17.76A193.78,193.78,0,0,0,232,86Z"/><path class="cls-1" d="M53.34,138.09q3.75-4.83,7.82-9.43c-1.83-3.65-3.53-7.37-5.12-11.13q-5.61,4.31-10.91,9Q49,132.48,53.34,138.09Z"/><path class="cls-1" d="M211.13,138.9q2.63,4.56,5,9.26,4-4.51,7.67-9.26-3.69-4.76-7.67-9.27Q213.77,134.32,211.13,138.9Z"/><path class="cls-1" d="M221.75,117.53c-1.59,3.76-3.29,7.48-5.12,11.13q4.06,4.59,7.83,9.43,4.31-5.61,8.2-11.54Q227.37,121.84,221.75,117.53Z"/><path class="cls-1" d="M157.58,208.67q-3.72,3.74-7.64,7.24,5.38,2.68,10.94,5,3.63-4.8,7-9.83C164.41,210.38,161,209.58,157.58,208.67Z"/><path class="cls-1" d="M77.82,198.82q-.75-6.07-1.13-12.19c-3.88-1.3-7.7-2.72-11.49-4.25q-.93,7-1.33,14.09C68.49,197.42,73.15,198.21,77.82,198.82Z"/><path class="cls-1" d="M69.12,157.59q-3.72-3.74-7.24-7.65-2.68,5.38-5,10.94,4.8,3.63,9.81,7C67.39,164.41,68.22,161,69.12,157.59Z"/><path class="cls-1" d="M76.34,175q-4.56-2.64-9-5.51c-.79,3.93-1.47,7.89-2,11.86q5.57,2.26,11.28,4.19C76.43,182,76.34,178.53,76.34,175Z"/><path class="cls-1" d="M64.39,181c.57-4,1.25-8.08,2.07-12.08-3.41-2.25-6.74-4.62-10-7.08q-2.72,6.54-4.94,13.27Q57.85,178.27,64.39,181Z"/><path class="cls-1" d="M56,160.26q2.39-5.64,5.12-11.13-4.06-4.59-7.82-9.43-4.32,5.63-8.21,11.54Q50.43,156,56,160.26Z"/><path class="cls-1" d="M66.66,138.9q-2.62-4.58-5-9.27-4,4.51-7.67,9.27,3.69,4.74,7.67,9.26Q64,143.47,66.66,138.9Z"/><path class="cls-1" d="M160.26,221.75q-5.64-2.38-11.13-5.12-4.59,4.06-9.43,7.83,5.61,4.31,11.54,8.2Q156,227.37,160.26,221.75Z"/><path class="cls-1" d="M120.21,208.67c-3.4.91-6.83,1.71-10.27,2.43q3.33,5,7,9.83,5.55-2.34,10.94-5Q123.94,212.4,120.21,208.67Z"/><path class="cls-1" d="M87.82,190q-5.1-1.36-10.1-3,.38,6,1.12,12,6,.75,12,1.12Q89.19,195.08,87.82,190Z"/><path class="cls-1" d="M138.9,211.13q-4.58,2.63-9.27,5,4.51,4,9.27,7.67,4.74-3.69,9.26-7.67Q143.47,213.77,138.9,211.13Z"/><path class="cls-1" d="M116,221.33c-2.46-3.26-4.83-6.59-7.08-10q-6,1.23-12.08,2.06,2.72,6.54,5.89,12.88Q109.44,224,116,221.33Z"/><path class="cls-1" d="M95.41,212.59q-2.3-5.68-4.25-11.5Q85,200.73,79,200q.91,7,2.35,14Q88.4,213.52,95.41,212.59Z"/><path class="cls-1" d="M102.79,201.46c-3.53,0-7-.12-10.55-.31q1.92,5.72,4.19,11.29c4-.54,7.93-1.22,11.86-2C106.38,207.5,104.54,204.5,102.79,201.46Z"/><path class="cls-1" d="M138.09,224.46q-4.83-3.77-9.43-7.83c-3.65,1.83-7.37,3.53-11.13,5.12q4.31,5.61,9,10.91Q132.48,228.76,138.09,224.46Z"/><path d="M277.79,138.9l-.35-.36A202.34,202.34,0,0,0,259.91,123a201.16,201.16,0,0,0,12.9-19.58l.25-.43-.44-.25a197.21,197.21,0,0,0-21-10.51,200.85,200.85,0,0,0,7.39-22.26l.13-.48-.48-.13a200.93,200.93,0,0,0-23-4.73,199.63,199.63,0,0,0,1.38-23.41v-.5h-.5a199.63,199.63,0,0,0-23.41,1.38,200.93,200.93,0,0,0-4.73-23l-.13-.48-.48.13a200.85,200.85,0,0,0-22.26,7.39,197.21,197.21,0,0,0-10.51-21l-.25-.44-.43.25a201.16,201.16,0,0,0-19.58,12.9A200.69,200.69,0,0,0,139.25.35L138.9,0l-.36.35A201,201,0,0,0,123,17.89,199.42,199.42,0,0,0,103.38,5L103,4.73l-.25.44a197.21,197.21,0,0,0-10.51,21,200.85,200.85,0,0,0-22.26-7.39l-.48-.13-.13.48a200.93,200.93,0,0,0-4.73,23,199.63,199.63,0,0,0-23.41-1.38h-.49v.49a199.63,199.63,0,0,0,1.38,23.41,200.93,200.93,0,0,0-23,4.73l-.48.13.13.48a200.85,200.85,0,0,0,7.39,22.26,197.21,197.21,0,0,0-21,10.51l-.44.25.25.43A201.16,201.16,0,0,0,17.88,123,202.34,202.34,0,0,0,.35,138.54L0,138.9l.35.35a200.69,200.69,0,0,0,17.53,15.58A201.16,201.16,0,0,0,5,174.41l-.25.43.44.25a198.22,198.22,0,0,0,21,10.5,199,199,0,0,0-7.4,22.27l-.13.48.48.13a198.71,198.71,0,0,0,23,4.71,200.1,200.1,0,0,0-1.38,23.43v.5h.5a199.63,199.63,0,0,0,23.41-1.38,200.93,200.93,0,0,0,4.73,23l.13.48.48-.13a198.79,198.79,0,0,0,22.26-7.39,196.27,196.27,0,0,0,10.51,21l.25.44.43-.25A201.16,201.16,0,0,0,123,259.91a202.34,202.34,0,0,0,15.58,17.53l.36.35.35-.35a200.69,200.69,0,0,0,15.58-17.53,201.16,201.16,0,0,0,19.58,12.9l.43.25.25-.44a196.27,196.27,0,0,0,10.51-21,198.79,198.79,0,0,0,22.26,7.39l.48.13.13-.48a200.93,200.93,0,0,0,4.73-23,199.63,199.63,0,0,0,23.41,1.38l.48,0,0-.48a200.1,200.1,0,0,0-1.38-23.43,200.83,200.83,0,0,0,23-4.71l.48-.13-.13-.48a199,199,0,0,0-7.4-22.27,198.22,198.22,0,0,0,21-10.5l.44-.25-.25-.43a201.16,201.16,0,0,0-12.9-19.58,200.69,200.69,0,0,0,17.53-15.58Zm-6.1-35.59a197.47,197.47,0,0,1-12.57,19A196.09,196.09,0,0,0,243,111a193.74,193.74,0,0,0,8.31-17.88A201,201,0,0,1,271.69,103.31ZM200.15,185.9q-4.91,1.6-9.89,3c.78-3,1.48-5.93,2.12-8.92q4.1-2.08,8.07-4.36Q200.44,180.74,200.15,185.9ZM77.34,175.58q4,2.26,8.07,4.36c.64,3,1.34,6,2.12,8.92q-5-1.35-9.89-3Q77.36,180.74,77.34,175.58Zm.3-83.68q4.9-1.62,9.89-3c-.78,2.95-1.48,5.93-2.12,8.92q-4.09,2.1-8.07,4.36Q77.35,97.05,77.64,91.9Zm122.81,10.31q-4-2.26-8.07-4.36c-.64-3-1.34-6-2.12-8.92q5,1.35,9.89,3Q200.44,97,200.45,102.21Zm-4.77,36.69c0,2.49-.06,5-.15,7.45q-.83,3.63-1.78,7.24c-.65,2.41-1.35,4.79-2.08,7.16-1.16,2.2-2.35,4.38-3.6,6.54s-2.54,4.28-3.86,6.38c-1.68,1.82-3.4,3.62-5.16,5.38s-3.56,3.47-5.38,5.16c-2.1,1.32-4.22,2.62-6.38,3.86s-4.35,2.44-6.54,3.6c-2.37.73-4.75,1.43-7.16,2.08s-4.82,1.23-7.24,1.78c-2.48.09-5,.15-7.45.15s-5-.06-7.46-.15q-3.63-.83-7.24-1.78c-2.41-.65-4.79-1.35-7.16-2.08-2.19-1.16-4.38-2.35-6.54-3.6s-4.28-2.54-6.38-3.86c-1.82-1.69-3.62-3.4-5.38-5.16s-3.48-3.56-5.16-5.38c-1.32-2.1-2.62-4.22-3.86-6.38s-2.44-4.34-3.6-6.54c-.73-2.37-1.43-4.75-2.08-7.16s-1.23-4.82-1.78-7.24c-.09-2.48-.15-5-.15-7.45s.06-5,.15-7.46q.83-3.63,1.78-7.24c.65-2.41,1.35-4.79,2.08-7.16,1.16-2.2,2.35-4.38,3.6-6.54s2.54-4.28,3.86-6.38c1.68-1.81,3.4-3.61,5.16-5.38s3.57-3.48,5.38-5.16c2.1-1.32,4.22-2.62,6.38-3.86s4.34-2.44,6.54-3.6c2.37-.73,4.75-1.43,7.16-2.08s4.82-1.23,7.24-1.78c2.48-.09,5-.15,7.46-.15s5,.06,7.45.15q3.63.83,7.24,1.78c2.41.65,4.79,1.35,7.16,2.08,2.2,1.16,4.38,2.35,6.54,3.6s4.28,2.54,6.38,3.86c1.81,1.68,3.62,3.4,5.38,5.16s3.48,3.57,5.16,5.38c1.32,2.1,2.62,4.22,3.86,6.38s2.44,4.34,3.6,6.54c.73,2.37,1.43,4.75,2.08,7.16s1.23,4.82,1.78,7.24C195.62,133.92,195.68,136.4,195.68,138.9Zm-1-15c-.19-.71-.39-1.41-.59-2.11l1,2,.15,2.24C195.07,125.36,194.9,124.65,194.71,123.94Zm-2.11-7.29q-.75-2.39-1.54-4.75c1.11,1.33,2.21,2.68,3.28,4,.2,1.72.38,3.44.53,5.17Q193.76,118.87,192.6,116.65ZM190,111.92c-.35-.64-.7-1.28-1.07-1.92l-1.12-1.88c.49.56,1,1.11,1.47,1.68C189.54,110.5,189.78,111.21,190,111.92Zm-5-8.41q-1.33-2.12-2.71-4.19,2.13,1.5,4.21,3,.94,2.42,1.85,4.85C187.26,106,186.14,104.73,185,103.51Zm-3.72-3.91L179.76,98l-1.57-1.53L180,97.75C180.46,98.36,180.87,99,181.29,99.6Zm-7-6.82c-1.22-1.13-2.46-2.25-3.7-3.35q2.43.9,4.85,1.85,1.55,2.09,3,4.21Q176.4,94.11,174.28,92.78ZM169.67,90l-1.88-1.12c-.64-.37-1.28-.71-1.92-1.07.71.24,1.42.47,2.12.72C168.56,89,169.11,89.48,169.67,90Zm-8.53-4.78c-1.47-.77-3-1.53-4.44-2.27,1.72.16,3.44.33,5.16.53,1.35,1.07,2.7,2.17,4,3.28Q163.52,85.94,161.14,85.19ZM156,83.67l-2.11-.59-2.12-.54,2.23.15Zm-9.48-2.4c-1.62-.37-3.25-.72-4.88-1,1.71-.3,3.42-.57,5.13-.82q2.37,1,4.74,2.12C149.81,81.41,148.15,81.33,146.48,81.27Zm-5.39-.13c-.73,0-1.46,0-2.19,0s-1.47,0-2.2,0l2.2-.44Zm-9.78.13c-1.67.06-3.33.14-5,.25,1.58-.73,3.15-1.44,4.74-2.12,1.71.25,3.42.52,5.13.82C134.56,80.55,132.93,80.9,131.31,81.27Zm-5.24,1.27c-.71.18-1.42.35-2.13.54l-2.11.59,2-1C124.58,82.63,125.32,82.58,126.07,82.54Zm-9.42,2.66q-2.39.73-4.75,1.53c1.33-1.11,2.67-2.21,4-3.28,1.72-.2,3.44-.37,5.16-.53Q118.85,84,116.65,85.2Zm-4.73,2.58c-.64.36-1.28.7-1.92,1.07L108.12,90c.56-.49,1.12-1,1.68-1.47C110.5,88.25,111.21,88,111.92,87.78Zm-8.41,5q-2.12,1.34-4.19,2.71,1.5-2.13,3-4.21,2.42-.94,4.85-1.85C106,90.53,104.73,91.65,103.51,92.78ZM99.6,96.5,98,98,96.5,99.6c.42-.62.83-1.24,1.25-1.85Zm-6.82,7c-1.13,1.22-2.25,2.46-3.35,3.7q.9-2.43,1.85-4.85,2.09-1.55,4.21-3Q94.11,101.39,92.78,103.51ZM90,108.11,88.85,110c-.37.64-.71,1.28-1.07,1.92.24-.71.47-1.42.72-2.12C89,109.23,89.48,108.68,90,108.11Zm-4.78,8.54q-1.16,2.22-2.27,4.45c.15-1.73.33-3.45.53-5.17,1.07-1.36,2.17-2.7,3.28-4Q85.94,114.27,85.19,116.65Zm-1.52,5.18c-.19.7-.4,1.4-.59,2.11s-.36,1.42-.54,2.13c0-.75.09-1.49.15-2.24C83,123.16,83.34,122.49,83.67,121.83Zm-2.4,9.48c-.37,1.62-.72,3.25-1,4.88-.3-1.71-.57-3.42-.82-5.13q1-2.37,2.12-4.74C81.41,128,81.33,129.64,81.27,131.31Zm-.13,5.39c0,.73,0,1.46,0,2.2s0,1.46,0,2.19c-.15-.73-.3-1.46-.44-2.19C80.84,138.16,81,137.43,81.14,136.7Zm.13,9.78c.06,1.67.14,3.33.25,5-.73-1.58-1.44-3.15-2.12-4.74.25-1.71.52-3.42.82-5.13C80.55,143.23,80.9,144.86,81.27,146.48Zm1.27,5.24c.18.71.35,1.42.54,2.13s.4,1.41.59,2.12c-.33-.67-.66-1.34-1-2C82.63,153.21,82.58,152.47,82.54,151.72Zm2.65,9.42q.75,2.38,1.54,4.75c-1.11-1.33-2.21-2.67-3.28-4-.2-1.72-.38-3.44-.53-5.16Q84,158.92,85.19,161.14Zm2.59,4.73c.36.64.7,1.28,1.07,1.92L90,169.68c-.49-.56-1-1.12-1.47-1.69C88.25,167.29,88,166.58,87.78,165.87Zm5,8.41q1.34,2.11,2.71,4.19-2.13-1.5-4.21-3-.94-2.42-1.85-4.85C90.53,171.82,91.65,173.06,92.78,174.28Zm3.72,3.91L98,179.76l1.57,1.53L97.75,180C97.33,179.43,96.92,178.81,96.5,178.19Zm7,6.82c1.22,1.13,2.46,2.25,3.7,3.35q-2.43-.9-4.85-1.85-1.55-2.08-3-4.21Q101.39,183.68,103.51,185Zm4.61,2.81,1.88,1.12c.65.37,1.31.72,2,1.09l-2.17-.74C109.23,188.81,108.68,188.31,108.12,187.82Zm8.53,4.78q2.2,1.16,4.42,2.27c-1.71-.16-3.43-.33-5.14-.53-1.35-1.07-2.7-2.17-4-3.28C113.48,191.59,115.06,192.11,116.65,192.6Zm5.18,1.52,2.11.59c.72.2,1.45.36,2.17.55l-2.27-.15Zm9.48,2.4c1.62.37,3.24.73,4.86,1-1.7.3-3.4.57-5.11.82q-2.37-1-4.74-2.12C128,196.38,129.64,196.46,131.31,196.52Zm5.39.13c.73,0,1.46,0,2.2,0l2.19,0-2.19.44Zm9.78-.13c1.67-.06,3.33-.14,5-.25-1.58.73-3.15,1.44-4.74,2.12-1.71-.25-3.41-.52-5.11-.82C143.24,197.25,144.86,196.89,146.48,196.52Zm5.2-1.26c.72-.19,1.45-.35,2.17-.55l2.11-.59-2,1Zm9.46-2.66c1.59-.49,3.17-1,4.75-1.54-1.33,1.11-2.67,2.21-4,3.28-1.71.2-3.42.37-5.14.53Q158.94,193.76,161.14,192.6Zm4.68-2.57c.66-.37,1.32-.72,2-1.09l1.89-1.12c-.56.49-1.12,1-1.69,1.47Zm8.46-5q2.11-1.33,4.19-2.71-1.5,2.13-3,4.21-2.42.94-4.85,1.85C171.82,187.26,173.06,186.14,174.28,185Zm3.91-3.72,1.57-1.53,1.53-1.57c-.41.62-.83,1.24-1.25,1.85Zm6.82-7c1.13-1.22,2.25-2.46,3.35-3.7q-.9,2.43-1.85,4.85-2.08,1.55-4.21,3Q183.68,176.4,185,174.28Zm2.81-4.6,1.12-1.89c.37-.64.72-1.28,1.07-1.92-.23.71-.47,1.42-.72,2.12C188.81,168.56,188.31,169.12,187.82,169.68Zm4.78-8.54q1.16-2.22,2.27-4.44c-.15,1.72-.33,3.44-.53,5.16-1.07,1.36-2.17,2.7-3.28,4Q191.86,163.52,192.6,161.14Zm1.52-5.17c.2-.71.4-1.41.59-2.12s.36-1.42.55-2.13l-.15,2.24Zm2.4-9.49c.37-1.62.72-3.25,1-4.88.3,1.71.57,3.42.82,5.13-.68,1.59-1.39,3.16-2.12,4.74C196.38,149.81,196.46,148.15,196.52,146.48Zm.13-5.39c0-.73,0-1.46,0-2.19s0-1.47,0-2.2c.15.73.3,1.46.44,2.2C197,139.63,196.8,140.36,196.65,141.09Zm-.13-9.78c-.06-1.67-.14-3.33-.25-5q1.09,2.37,2.12,4.74c-.25,1.71-.52,3.42-.82,5.13C197.24,134.56,196.89,132.93,196.52,131.31Zm-.43-7.74c-.16-2.06-.36-4.11-.58-6.15,1.34,1.73,2.65,3.49,3.92,5.25-.22,2.18-.47,4.35-.77,6.52C197.83,127.31,197,125.43,196.09,123.57Zm-.79-8q-.42-3.52-1-7,3,2.46,5.82,5c-.15,2.55-.33,5.11-.57,7.66C198.19,119.28,196.77,117.39,195.3,115.53Zm-1.19-1.48q-1.94-2.4-3.94-4.76c-.68-2-1.41-3.87-2.15-5.79,1.75,1.32,3.46,2.68,5.15,4.06C193.52,109.71,193.84,111.88,194.11,114.05Zm-6.78-12.32q-1.32-3.3-2.75-6.54,3.49,1.61,6.92,3.34.8,3.75,1.44,7.55Q190.18,103.86,187.33,101.73Zm-1.53-1.13c-1.66-1.21-3.34-2.41-5-3.57-1.16-1.7-2.36-3.38-3.57-5q3,1.24,6,2.59Q184.56,97.57,185.8,100.6Zm-9.74-10.14q-2.13-2.85-4.35-5.61c2.53.43,5,.92,7.55,1.44q1.74,3.42,3.34,6.92C180.44,92.25,178.26,91.34,176.06,90.46Zm-1.77-.69c-1.92-.75-3.84-1.47-5.79-2.15q-2.35-2-4.76-3.94c2.18.27,4.34.59,6.49.94C171.61,86.31,173,88,174.29,89.77Zm-12-7.28c-1.86-1.47-3.75-2.89-5.65-4.29,2.55-.24,5.11-.42,7.66-.56q2.56,2.85,5,5.81Q165.78,82.91,162.26,82.49Zm-1.89-.21c-2-.22-4.09-.42-6.15-.58-1.86-.89-3.73-1.74-5.62-2.57,2.17-.3,4.34-.55,6.52-.77C156.88,79.64,158.64,80.94,160.37,82.28Zm-13.5-3.91Q143.6,77,140.3,75.69q3.6-1.35,7.25-2.53,3.21,2.09,6.35,4.32Q150.38,77.86,146.87,78.37Zm-1.88.28c-2,.32-4.07.66-6.09,1-2-.38-4.06-.72-6.1-1,2-.85,4-1.65,6.09-2.43C140.93,77,143,77.81,145,78.65Zm-14.07-.28c-2.34-.34-4.69-.64-7-.89q3.14-2.24,6.35-4.32,3.64,1.19,7.25,2.53Q134.19,77,130.92,78.37Zm-1.74.76c-1.88.83-3.75,1.68-5.61,2.57-2.06.16-4.11.36-6.15.58,1.73-1.34,3.49-2.64,5.25-3.92C124.85,78.58,127,78.83,129.18,79.13Zm-13.65,3.36q-3.52.42-7,1,2.46-3,5-5.82c2.55.15,5.11.33,7.66.57C119.28,79.6,117.39,81,115.53,82.49Zm-1.48,1.19q-2.4,1.93-4.76,3.94-2.91,1-5.79,2.15c1.32-1.75,2.68-3.46,4.06-5.15C109.71,84.27,111.88,84,114.05,83.68Zm-12.32,6.78c-2.2.88-4.38,1.79-6.54,2.75q1.61-3.49,3.34-6.92c2.5-.52,5-1,7.55-1.44Q103.86,87.61,101.73,90.46ZM100.6,92Q98.79,94.48,97,97c-1.7,1.16-3.38,2.36-5,3.57.83-2,1.7-4,2.59-6Q97.57,93.23,100.6,92Zm-10.14,9.74q-2.85,2.13-5.61,4.35.65-3.8,1.44-7.55,3.42-1.74,6.92-3.34Q91.79,98.43,90.46,101.73Zm-.69,1.77c-.74,1.92-1.47,3.84-2.15,5.79q-2,2.35-3.94,4.76c.27-2.17.59-4.34.94-6.49C86.31,106.18,88,104.82,89.77,103.5Zm-7.28,12c-1.47,1.86-2.89,3.75-4.29,5.65-.24-2.55-.42-5.11-.56-7.66q2.85-2.56,5.81-5Q82.91,112,82.49,115.53Zm-.21,1.89c-.22,2-.42,4.09-.58,6.15-.89,1.86-1.74,3.74-2.57,5.62-.3-2.17-.55-4.34-.77-6.52C79.63,120.91,80.94,119.15,82.28,117.42Zm-3.91,13.51q-1.41,3.25-2.68,6.56c-.9-2.4-1.74-4.82-2.54-7.25q2.1-3.21,4.33-6.35C77.73,126.24,78,128.58,78.37,130.93Zm.28,1.88c.32,2,.66,4.06,1,6.09-.38,2-.72,4-1,6.09-.85-2-1.65-4.05-2.43-6.09C77,136.86,77.8,134.82,78.65,132.81Zm-.28,14.05c-.34,2.35-.64,4.69-.89,7q-2.24-3.14-4.32-6.35,1.19-3.65,2.53-7.25Q77,143.6,78.37,146.86Zm.76,1.74c.83,1.89,1.68,3.76,2.57,5.62.16,2.06.36,4.11.58,6.15-1.34-1.73-2.64-3.48-3.92-5.25C78.58,152.94,78.83,150.77,79.13,148.6Zm3.36,13.66q.42,3.53,1,7-3-2.46-5.81-5c.14-2.55.32-5.11.56-7.66C79.6,158.51,81,160.4,82.49,162.26Zm1.19,1.48c1.29,1.61,2.6,3.19,3.94,4.76.68,1.95,1.41,3.87,2.15,5.79-1.75-1.32-3.46-2.68-5.15-4.06C84.27,168.08,84,165.92,83.68,163.74Zm6.78,12.32q1.32,3.3,2.75,6.54-3.49-1.6-6.92-3.34-.8-3.75-1.44-7.55Q87.61,173.93,90.46,176.06ZM92,177.19c1.66,1.21,3.34,2.41,5,3.57,1.16,1.7,2.36,3.38,3.57,5q-3-1.25-6-2.59C93.69,181.22,92.82,179.21,92,177.19Zm9.74,10.14q2.13,2.85,4.35,5.61-3.8-.65-7.55-1.44c-1.16-2.28-2.27-4.58-3.34-6.92C97.35,185.54,99.53,186.45,101.73,187.33Zm1.77.69q2.88,1.13,5.79,2.15,2.35,2,4.76,3.94c-2.17-.27-4.34-.59-6.49-.94C106.18,191.48,104.82,189.77,103.5,188Zm12,7.28c1.86,1.47,3.75,2.9,5.65,4.29-2.55.24-5.11.43-7.66.57q-2.56-2.86-5-5.82Q112,194.88,115.53,195.3Zm1.89.21c2.06.22,4.13.42,6.2.58,1.85.89,3.71,1.74,5.58,2.57-2.17.3-4.35.55-6.53.77C120.91,198.16,119.15,196.85,117.42,195.51Zm13.51,3.9q3.27,1.41,6.58,2.69c-2.41.9-4.83,1.74-7.27,2.54-2.14-1.41-4.27-2.85-6.36-4.33Q127.41,199.92,130.93,199.41Zm1.86-.28q3.06-.47,6.1-1c2,.38,4.07.73,6.11,1-2,.85-4.06,1.66-6.1,2.44Q135.82,200.4,132.79,199.13Zm14.07.28q3.52.51,7,.9c-2.09,1.49-4.21,2.92-6.36,4.33-2.43-.8-4.86-1.64-7.27-2.54Q143.6,200.83,146.86,199.41Zm1.73-.75c1.87-.83,3.73-1.68,5.58-2.57,2.07-.16,4.14-.36,6.2-.58q-2.6,2-5.25,3.92C152.94,199.21,150.76,199,148.59,198.66Zm13.67-3.36q3.53-.42,7-1-2.46,3-5,5.82c-2.55-.15-5.11-.33-7.66-.57C158.51,198.19,160.4,196.77,162.26,195.3Zm1.48-1.19q2.4-1.94,4.76-3.94c1.95-.68,3.87-1.4,5.79-2.15-1.32,1.75-2.68,3.46-4.06,5.15C168.08,193.52,165.92,193.84,163.74,194.11Zm12.32-6.78c2.2-.88,4.38-1.79,6.54-2.75-1.07,2.34-2.18,4.64-3.34,6.92q-3.75.8-7.55,1.44Q173.93,190.18,176.06,187.33Zm1.13-1.53c1.21-1.66,2.41-3.34,3.57-5,1.7-1.16,3.38-2.36,5-3.57q-1.25,3-2.59,6Q180.23,184.56,177.19,185.8Zm10.14-9.74q2.85-2.13,5.61-4.35-.65,3.79-1.44,7.55-3.42,1.74-6.92,3.34Q186,179.36,187.33,176.06Zm.69-1.77c.75-1.92,1.47-3.84,2.15-5.79,1.34-1.57,2.65-3.15,3.94-4.76-.27,2.17-.59,4.34-.94,6.49C191.48,171.61,189.77,173,188,174.29Zm7.28-12c1.47-1.86,2.89-3.75,4.29-5.65.24,2.55.42,5.11.57,7.66q-2.86,2.56-5.82,5Q194.88,165.78,195.3,162.26Zm.21-1.89c.22-2,.42-4.09.58-6.15.89-1.86,1.74-3.73,2.57-5.62.3,2.17.55,4.35.77,6.52Q197.52,157.77,195.51,160.37Zm3.92-13.51q1.4-3.26,2.68-6.56,1.33,3.6,2.53,7.25-2.1,3.21-4.33,6.35C200.06,151.55,199.77,149.21,199.43,146.86Zm-.29-1.87c-.32-2-.66-4.07-1-6.09.38-2,.72-4.06,1-6.09.85,2,1.65,4.05,2.43,6.09C200.79,140.94,200,143,199.14,145Zm.29-14.06c.34-2.35.63-4.69.88-7q2.24,3.14,4.33,6.35-1.2,3.64-2.53,7.25Q200.82,134.19,199.43,130.93Zm1-8.53q.41-4,.64-8,3.3,3,6.44,6.12Q206.4,124.79,205,129C203.56,126.78,202,124.58,200.47,122.4Zm.71-9.3q.24-4.59.27-9.17,4.45,2.59,8.77,5.42c-.69,3.37-1.49,6.71-2.37,10Q204.6,116.17,201.18,113.1Zm-1-.86q-3-2.67-6.13-5.22c-.43-2.65-.92-5.29-1.45-7.91q3.94,2,7.8,4.25Q200.44,107.8,200.23,112.24Zm-9-15q-3.6-1.8-7.27-3.45-1.65-3.67-3.45-7.27c2.9.63,5.77,1.33,8.63,2.09Q190.29,92.93,191.24,97.27Zm-11.3-11.86q-2.08-4.09-4.36-8.07,5.16,0,10.32.3,1.6,4.9,3,9.89C185.91,86.75,182.93,86.05,179.94,85.41Zm-1.26-.26q-3.93-.81-7.91-1.46-2.55-3.12-5.22-6.12c3-.15,5.92-.22,8.88-.23Q176.65,81.19,178.68,85.15Zm-14-8.54q-3.07-3.4-6.3-6.67c3.33-.88,6.67-1.68,10-2.37q2.84,4.31,5.42,8.78C170.81,76.36,167.75,76.45,164.7,76.61Zm-1.29.07c-2.67.16-5.34.38-8,.64-2.19-1.57-4.39-3.09-6.63-4.56q4.23-1.37,8.52-2.52Q160.43,73.39,163.41,76.68Zm-15.72-4.62c-2.56-1.67-5.17-3.28-7.8-4.82q4.49-2.56,9.08-4.89,3.85,3.43,7.51,7.08Q152.07,70.63,147.69,72.06Zm-1.22.39c-2.54.85-5.06,1.75-7.58,2.7q-3.76-1.43-7.57-2.7,3.74-2.4,7.57-4.63Q142.73,70.06,146.47,72.45Zm-16.37-.39q-4.38-1.43-8.79-2.63,3.66-3.65,7.51-7.08,4.6,2.32,9.08,4.89C135.27,68.78,132.66,70.39,130.1,72.06Zm-1.08.7c-2.24,1.47-4.44,3-6.62,4.56-2.68-.26-5.35-.48-8-.64q3-3.3,6.12-6.44C123.35,71,126.2,71.85,129,72.76ZM113.1,76.61q-4.59-.24-9.17-.26,2.59-4.47,5.42-8.78,5,1.05,10,2.37Q116.17,73.19,113.1,76.61Zm-.86,1q-2.67,3-5.22,6.12-4,.65-7.91,1.46,2-4,4.25-7.81C106.32,77.35,109.28,77.42,112.24,77.57ZM97.86,85.41c-3,.64-6,1.34-8.93,2.12q1.35-5,3-9.89,5.14-.28,10.31-.3Q99.95,81.32,97.86,85.41Zm-.59,1.14c-1.2,2.4-2.34,4.82-3.45,7.27q-3.67,1.65-7.27,3.45.95-4.33,2.09-8.63Q92.93,87.5,97.27,86.55ZM85.15,99.11Q84.34,103,83.69,107q-3.12,2.55-6.12,5.22c-.15-3-.22-5.92-.23-8.88Q81.19,101.16,85.15,99.11Zm-8.54,14q-3.42,3.08-6.67,6.29c-.88-3.33-1.68-6.67-2.37-10q4.31-2.84,8.78-5.42Q76.37,108.51,76.61,113.1Zm.07,1.28q.24,4,.64,8c-1.57,2.18-3.09,4.38-4.56,6.62q-1.37-4.23-2.52-8.52Q73.39,117.37,76.68,114.38ZM72.06,130.1c-1.67,2.56-3.28,5.17-4.82,7.8-1.71-3-3.35-6-4.89-9.08q3.43-3.85,7.08-7.51Q70.63,125.72,72.06,130.1Zm.39,1.22c.85,2.54,1.75,5.06,2.7,7.58q-1.43,3.76-2.7,7.57-2.4-3.74-4.63-7.58Q70.06,135.07,72.45,131.32Zm-.39,16.38q-1.43,4.37-2.63,8.78-3.65-3.66-7.08-7.51,2.32-4.6,4.89-9.08Q69.55,143.84,72.06,147.7Zm.7,1.07c1.47,2.24,3,4.44,4.56,6.62q-.41,4-.64,8-3.3-3-6.44-6.12C71,154.44,71.85,151.59,72.76,148.77Zm3.85,15.92q-.24,4.59-.26,9.17-4.47-2.6-8.78-5.42c.69-3.36,1.49-6.71,2.37-10Q73.19,161.63,76.61,164.69Zm1,.86q3,2.67,6.12,5.22.65,4,1.46,7.91-4-2-7.81-4.25C77.35,171.48,77.42,168.51,77.57,165.55Zm9,15q3.6,1.8,7.27,3.45c1.11,2.45,2.25,4.87,3.45,7.27q-4.33-.94-8.63-2.09C87.88,186.29,87.18,183.42,86.55,180.52Zm11.31,11.86q2.08,4.1,4.35,8.07-5.16,0-10.32-.3-1.61-4.91-3-9.89C91.88,191,94.86,191.74,97.86,192.38Zm1.25.27c2.62.53,5.26,1,7.91,1.45q2.55,3.12,5.22,6.13-4.44.21-8.88.22Q101.14,196.6,99.11,192.65Zm14,8.52q3.07,3.42,6.3,6.68c-3.33.88-6.68,1.68-10,2.37q-2.84-4.31-5.42-8.77C107,201.43,110,201.33,113.09,201.17Zm1.28-.06q4-.24,8-.63c2.17,1.56,4.38,3.08,6.61,4.55-2.82.91-5.67,1.75-8.52,2.52Q117.37,204.4,114.37,201.11Zm15.71,4.62q3.87,2.51,7.82,4.82c-3,1.71-6,3.35-9.08,4.89q-3.85-3.44-7.51-7.07C124.25,207.56,127.17,206.67,130.08,205.73Zm1.23-.4q3.81-1.26,7.59-2.68,3.76,1.42,7.58,2.68-3.73,2.41-7.58,4.64Q135.06,207.74,131.31,205.33Zm16.4.4c2.91.94,5.83,1.83,8.77,2.64q-3.66,3.63-7.51,7.07c-3.07-1.54-6.09-3.18-9.08-4.89Q143.85,208.24,147.71,205.73Zm1.06-.7c2.23-1.47,4.44-3,6.61-4.55,2.68.27,5.36.47,8,.63q-3,3.28-6.13,6.44C154.44,206.78,151.59,205.94,148.77,205Zm15.93-3.86c3.06.16,6.11.26,9.16.28q-2.6,4.45-5.42,8.77c-3.36-.69-6.71-1.49-10-2.37Q161.63,204.6,164.7,201.17Zm.85-.95q2.67-3,5.22-6.12c2.65-.43,5.29-.92,7.91-1.45q-2,3.94-4.25,7.8C171.48,200.44,168.51,200.37,165.55,200.22Zm14.39-7.84c3-.64,6-1.34,8.92-2.12q-1.35,5-3,9.89-5.16.28-10.32.3Q177.85,196.48,179.94,192.38Zm.58-1.14q1.8-3.6,3.45-7.27,3.67-1.65,7.27-3.45c-.63,2.9-1.33,5.77-2.09,8.63C186.29,189.91,183.42,190.61,180.52,191.24Zm12.13-12.56c.53-2.62,1-5.26,1.45-7.91q3.12-2.55,6.13-5.22c.14,3,.21,5.93.22,8.88Q196.6,176.65,192.65,178.68Zm8.53-14q3.42-3.06,6.67-6.29c.88,3.33,1.68,6.68,2.37,10q-4.31,2.84-8.77,5.42Q201.42,169.29,201.18,164.69Zm-.07-1.28q-.24-4-.64-8c1.57-2.18,3.09-4.38,4.56-6.62.91,2.82,1.75,5.67,2.52,8.52Q204.4,160.43,201.11,163.41Zm4.62-15.71q2.51-3.85,4.82-7.81c1.71,3,3.35,6,4.89,9.08q-3.44,3.85-7.08,7.51Q207.16,152.07,205.73,147.7Zm-.39-1.22c-.85-2.55-1.75-5.07-2.7-7.58,1-2.52,1.85-5,2.7-7.58q2.4,3.74,4.63,7.58Q207.74,142.72,205.34,146.48Zm.39-16.38q1.43-4.38,2.63-8.79,3.64,3.66,7.08,7.51-2.33,4.6-4.89,9.08C209,135.27,207.4,132.66,205.73,130.1Zm2.94-9.9c.9-3.4,1.73-6.81,2.45-10.25q5,3.33,9.81,7-2.34,5.55-5,10.94Q212.4,123.94,208.67,120.2Zm2.66-11.31q1.23-6,2.07-12.07,6.54,2.7,12.87,5.89Q224,109.43,221.33,116C218.07,113.51,214.74,111.14,211.33,108.89Zm-.9-.6q-4.41-2.88-9-5.51c0-3.52-.09-7-.29-10.54q5.72,1.92,11.28,4.19Q211.63,102.4,210.43,108.29ZM201.1,91.16Q200.73,85.06,200,79c4.67.61,9.33,1.4,13.95,2.35q-.4,7.08-1.33,14.1Q206.92,93.11,201.1,91.16Zm-1-.34q-5-1.63-10.1-3-1.36-5.1-3-10.1,6,.38,12,1.12Q199.7,84.81,200.07,90.82ZM186.63,76.69q-1.95-5.81-4.25-11.49,7-.93,14.09-1.33,1.42,6.93,2.35,14Q192.75,77.07,186.63,76.69Zm-1.08-.06c-3.51-.2-7-.29-10.54-.29q-2.64-4.56-5.51-9,5.9-1.2,11.86-2Q183.63,70.92,185.55,76.63ZM168.9,66.46c-2.25-3.41-4.62-6.74-7.08-10q6.54-2.72,13.27-4.94,3.18,6.33,5.89,12.87Q174.91,65.23,168.9,66.46Zm-1.06.21c-3.44.72-6.85,1.55-10.25,2.45q-3.74-3.72-7.65-7.24,5.38-2.68,10.94-5Q164.51,61.66,167.84,66.67Zm-18.71-5.51q-4.59-4.06-9.43-7.82,5.61-4.32,11.54-8.21,4.71,5.29,9,10.91Q154.62,58.43,149.13,61.16Zm-1,.48q-4.69,2.38-9.26,5-4.58-2.62-9.27-5,4.51-4,9.27-7.67Q143.64,57.66,148.16,61.64Zm-19.5-.48c-3.65-1.83-7.37-3.53-11.13-5.12q4.31-5.61,9-10.91,5.92,3.9,11.54,8.21Q133.26,57.09,128.66,61.16Zm-.81.72q-3.91,3.51-7.65,7.25-5.1-1.36-10.25-2.46,3.33-5,7-9.8Q122.46,59.2,127.85,61.88Zm-19,4.58q-6-1.23-12.08-2.06,2.72-6.54,5.89-12.87,6.74,2.22,13.27,4.93C113.51,59.72,111.14,63.05,108.89,66.46Zm-.6.9q-2.88,4.41-5.51,9c-3.52,0-7,.09-10.54.29q1.92-5.72,4.19-11.28C100.4,65.89,104.36,66.57,108.29,67.36ZM91.16,76.69Q85,77.07,79,77.83q.91-7,2.35-14,7.08.41,14.1,1.33Q93.11,70.88,91.16,76.69Zm-.34,1q-1.63,5-3,10.1-5.1,1.37-10.1,3,.38-6,1.12-12Q84.81,78.09,90.82,77.72ZM76.69,91.16c-3.88,1.3-7.7,2.72-11.49,4.26q-.93-7-1.33-14.1c4.62-.95,9.28-1.74,13.95-2.35Q77.07,85,76.69,91.16Zm-.06,1.08c-.2,3.51-.29,7-.29,10.54q-4.56,2.64-9,5.51c-.79-3.93-1.47-7.88-2-11.86Q70.92,94.17,76.63,92.24ZM66.46,108.89c-3.41,2.25-6.74,4.62-10,7.08q-2.72-6.54-4.94-13.27,6.33-3.18,12.87-5.88C65,100.86,65.64,104.89,66.46,108.89Zm.21,1.06c.72,3.44,1.55,6.85,2.45,10.25q-3.72,3.73-7.24,7.65-2.68-5.38-5-10.94Q61.66,113.28,66.67,110Zm-5.51,18.71q-4.06,4.59-7.82,9.43-4.32-5.61-8.21-11.54,5.29-4.71,10.91-9C57.63,121.29,59.33,125,61.16,128.66Zm.48,1q2.38,4.69,5,9.27-2.62,4.56-5,9.26-4-4.51-7.67-9.26Q57.66,134.14,61.64,129.63Zm-.48,19.5q-2.74,5.49-5.12,11.13-5.61-4.31-10.91-9,3.9-5.93,8.21-11.54Q57.09,144.55,61.16,149.13Zm.72.81q3.51,3.92,7.24,7.65c-.9,3.4-1.73,6.82-2.45,10.25q-5-3.33-9.81-7Q59.2,155.33,61.88,149.94Zm4.58,19c-.82,4-1.5,8-2.07,12.08q-6.53-2.72-12.87-5.89,2.23-6.74,4.94-13.27C59.72,164.28,63.05,166.65,66.46,168.9Zm.9.6q4.41,2.88,9,5.51c0,3.52.09,7,.29,10.54q-5.72-1.92-11.28-4.19C65.89,177.39,66.57,173.43,67.36,169.5Zm9.33,17.13q.38,6.12,1.13,12.19c-4.67-.61-9.33-1.4-13.95-2.35q.41-7.08,1.33-14.09C69,183.91,72.81,185.33,76.69,186.63Zm1,.34q5,1.64,10.1,3,1.37,5.1,3,10.1-6-.37-12-1.12Q78.09,193,77.72,187Zm13.44,14.12q1.95,5.82,4.25,11.5-7,.93-14.09,1.33Q79.9,207,79,200,85,200.73,91.16,201.09Zm1.08.06c3.51.19,7,.31,10.55.31,1.75,3,3.59,6,5.5,9-3.93.79-7.89,1.47-11.86,2Q94.17,206.86,92.24,201.15Zm16.65,10.18c2.25,3.41,4.62,6.74,7.08,10q-6.54,2.71-13.27,4.94-3.18-6.33-5.89-12.88Q102.89,212.55,108.89,211.33Zm1-.23c3.44-.72,6.87-1.52,10.27-2.43q3.72,3.74,7.64,7.24-5.38,2.68-10.94,5Q113.28,216.13,109.94,211.1Zm18.72,5.53q4.59,4.06,9.43,7.83-5.61,4.31-11.54,8.2-4.71-5.29-9-10.91C121.29,220.16,125,218.46,128.66,216.63Zm1-.48q4.69-2.39,9.27-5,4.56,2.63,9.26,5-4.51,4-9.26,7.67Q134.14,220.13,129.63,216.15Zm19.5.48q5.49,2.75,11.13,5.12-4.31,5.61-9,10.91-5.93-3.9-11.54-8.2Q144.55,220.7,149.13,216.63Zm.81-.72q3.92-3.51,7.64-7.24c3.41.91,6.83,1.71,10.27,2.43q-3.33,5-7,9.83Q155.33,218.59,149.94,215.91Zm19-4.58q6,1.23,12.08,2.06-2.72,6.54-5.89,12.88-6.74-2.24-13.27-4.94C164.28,218.07,166.65,214.74,168.9,211.33Zm.6-.9c1.91-2.93,3.75-5.93,5.5-9,3.53,0,7-.12,10.55-.31q-1.92,5.72-4.19,11.29Q175.4,211.63,169.5,210.43Zm17.13-9.34q6.12-.36,12.19-1.13-.91,7-2.35,14-7.08-.4-14.09-1.33Q184.68,206.91,186.63,201.09Zm.34-1q1.64-5,3-10.1,5.1-1.36,10.1-3-.37,6-1.12,12Q193,199.7,187,200.07Zm14.13-13.44q5.82-1.95,11.49-4.25.93,7,1.33,14.09c-4.62.95-9.28,1.74-13.95,2.35Q200.72,192.75,201.1,186.63Zm.06-1.08c.2-3.51.29-7,.29-10.54q4.58-2.64,9-5.51,1.2,5.9,2,11.86Q206.88,183.63,201.16,185.55Zm10.17-16.65c3.41-2.25,6.74-4.62,10-7.08q2.71,6.54,4.94,13.27-6.33,3.18-12.87,5.89Q212.56,174.91,211.33,168.9Zm-.21-1.06c-.72-3.43-1.55-6.85-2.45-10.25q3.72-3.74,7.24-7.65,2.68,5.38,5,10.94Q216.13,164.51,211.12,167.84Zm5.51-18.71q4.06-4.59,7.83-9.43,4.31,5.63,8.2,11.54-5.29,4.71-10.91,9Q219.37,154.62,216.63,149.13Zm-.48-1q-2.39-4.69-5-9.26,2.63-4.58,5-9.27,4,4.51,7.67,9.27Q220.13,143.64,216.15,148.16Zm.48-19.5c1.83-3.65,3.53-7.37,5.12-11.13q5.61,4.31,10.91,9-3.9,5.92-8.2,11.54Q220.7,133.26,216.63,128.66Zm5.52-12.07q2.76-6.61,5-13.42,7.41,3.77,14.5,8.19-3.93,7.36-8.46,14.34Q227.85,120.95,222.15,116.59Zm5.33-14.39q2.6-8,4.51-16.21a193.78,193.78,0,0,1,18.38,6.73,194.84,194.84,0,0,1-8.23,17.76Q235,106,227.48,102.2Zm-.91-.46q-6.4-3.21-13-5.94.94-7.1,1.37-14.26Q223,83.26,231,85.7,229.14,93.83,226.57,101.74ZM215,80.53q.45-8.4.16-16.84,9.75.39,19.5,1.75a193.85,193.85,0,0,1-3.36,19.29Q223.19,82.27,215,80.53Zm-1-.21q-7-1.45-14.12-2.37-.93-7.11-2.38-14.13,8.31-.43,16.65-.15Q214.41,72,214,80.32ZM197.26,62.83q-1.74-8.22-4.2-16.3a193.85,193.85,0,0,1,19.29-3.36q1.36,9.73,1.75,19.5Q205.66,62.38,197.26,62.83Zm-1,.05q-7.16.42-14.26,1.37-2.73-6.63-5.94-13,7.9-2.58,16-4.46Q194.52,54.74,196.25,62.88ZM175.59,50.31q-3.81-7.48-8.28-14.65a194.91,194.91,0,0,1,17.76-8.24q3.84,9.06,6.74,18.38C186.33,47.08,180.91,48.58,175.59,50.31Zm-1,.32q-6.8,2.25-13.42,5-4.35-5.7-9.11-11,7-4.53,14.34-8.46Q170.84,43.21,174.62,50.63Zm-23.21-6.8q-5.62-6.24-11.79-12a193.29,193.29,0,0,1,15-12.56q6,7.75,11.26,16Q158.45,39.25,151.41,43.83Zm-.85.56q-6,3.95-11.66,8.31-5.68-4.37-11.67-8.31,5.56-6.18,11.67-11.88Q145,38.21,150.56,44.39Zm-24.18-.56q-7-4.57-14.5-8.55a195,195,0,0,1,11.27-16,195,195,0,0,1,15,12.56Q132,37.58,126.38,43.83Zm-.68.76q-4.76,5.35-9.11,11-6.61-2.76-13.42-5,3.77-7.41,8.19-14.5Q118.73,40.06,125.7,44.59Zm-23.5,5.72q-8-2.6-16.21-4.51a193.78,193.78,0,0,1,6.73-18.38,194.91,194.91,0,0,1,17.76,8.24Q106,42.82,102.2,50.31Zm-.46.91q-3.21,6.41-5.94,13-7.1-.95-14.26-1.37,1.72-8.13,4.16-16.12Q93.83,48.65,101.74,51.22ZM80.53,62.83q-8.4-.45-16.84-.16.39-9.75,1.75-19.51,9.77,1.22,19.29,3.37Q82.27,54.6,80.53,62.83Zm-.21,1Q78.86,70.84,78,78q-7.11.92-14.13,2.37-.43-8.31-.15-16.65Q72,63.38,80.32,63.82ZM62.83,80.53q-8.22,1.74-16.3,4.2-2.16-9.51-3.37-19.29,9.75-1.36,19.51-1.75Q62.38,72.13,62.83,80.53Zm.05,1q.42,7.15,1.37,14.26-6.63,2.73-13,5.94-2.58-7.9-4.46-16Q54.74,83.27,62.88,81.54ZM50.31,102.2q-7.48,3.81-14.65,8.28a194.91,194.91,0,0,1-8.24-17.76A193.78,193.78,0,0,1,45.8,86Q47.71,94.21,50.31,102.2Zm.32,1q2.25,6.8,5,13.42-5.7,4.35-11,9.11-4.53-7-8.46-14.34Q43.21,107,50.63,103.17Zm-6.8,23.21q-6.24,5.63-12,11.79a195,195,0,0,1-12.56-15,195,195,0,0,1,16-11.27Q39.25,119.34,43.83,126.38Zm.56.85q3.95,6,8.31,11.67-4.37,5.67-8.31,11.66Q38.21,145,32.51,138.9,38.21,132.8,44.39,127.23Zm-.56,24.18q-4.57,7.05-8.55,14.5-8.25-5.21-16-11.26a195.18,195.18,0,0,1,12.56-15Q37.58,145.78,43.83,151.41Zm.76.68q5.35,4.77,11,9.11-2.76,6.62-5,13.42-7.41-3.76-14.5-8.19Q40.06,159.07,44.59,152.09Zm5.72,23.5q-2.6,8-4.51,16.21a193.78,193.78,0,0,1-18.38-6.73,194.91,194.91,0,0,1,8.24-17.76Q42.82,171.77,50.31,175.59Zm.91.46q6.41,3.21,13,5.94-.95,7.09-1.37,14.26-8.13-1.73-16.12-4.16Q48.65,184,51.22,176.05Zm11.61,21.2q-.45,8.4-.16,16.85-9.75-.39-19.5-1.75,1.2-9.76,3.35-19.28C51.91,194.71,57.35,196.09,62.83,197.25Zm1,.21q7,1.46,14.13,2.38Q78.87,207,80.32,214q-8.31.43-16.65.15Q63.38,205.78,63.82,197.46Zm6.38,17.79c3.45,0,6.89-.12,10.32-.3,1.16,5.48,2.57,10.93,4.21,16.31a193.85,193.85,0,0,1-19.29,3.36q-1.36-9.74-1.75-19.49Q66.94,215.25,70.2,215.25Zm11.34-.35q7.15-.42,14.26-1.36,2.73,6.63,5.94,13-7.9,2.58-16,4.46Q83.27,223,81.54,214.9Zm20.66,12.58q3.81,7.49,8.28,14.66a192.18,192.18,0,0,1-17.76,8.23A192.78,192.78,0,0,1,86,232Q94.21,230.08,102.2,227.48Zm1-.32q6.8-2.25,13.42-5,4.35,5.7,9.11,11-7,4.53-14.34,8.46Q107,234.58,103.17,227.16Zm23.21,6.8q5.63,6.24,11.79,12a195,195,0,0,1-15,12.56,195,195,0,0,1-11.27-16Q119.34,238.54,126.38,234Zm.85-.56q6-3.93,11.67-8.31,5.67,4.36,11.66,8.31-5.56,6.18-11.66,11.88Q132.8,239.6,127.23,233.4Zm24.18.56q7.05,4.57,14.5,8.55-5.21,8.25-11.26,16a193.29,193.29,0,0,1-15-12.56Q145.78,240.21,151.41,234Zm.68-.76q4.75-5.35,9.11-11,6.62,2.76,13.42,5-3.76,7.41-8.19,14.5Q159.07,237.73,152.09,233.2Zm23.5-5.72c5.32,1.73,10.74,3.24,16.22,4.51a195.62,195.62,0,0,1-6.74,18.38,192.18,192.18,0,0,1-17.76-8.23Q171.77,235,175.59,227.48Zm.46-.91q3.21-6.4,5.94-13,7.11.94,14.26,1.36Q194.52,223,192.09,231,184,229.14,176.05,226.57ZM197.27,215c3.43.18,6.87.3,10.32.3q3.25,0,6.51-.12-.39,9.75-1.75,19.5-9.76-1.22-19.29-3.37Q195.52,223.18,197.27,215Zm.2-1q1.46-7,2.38-14.13,7.1-.92,14.12-2.38.43,8.31.15,16.66Q205.78,214.41,197.47,214ZM215,197.25q8.22-1.74,16.3-4.17a193,193,0,0,1,3.37,19.27q-9.75,1.36-19.51,1.75Q215.41,205.66,215,197.25Zm-.05-1q-.42-7.16-1.37-14.26,6.63-2.73,13-5.94,2.58,7.9,4.46,16Q223.05,194.52,214.91,196.25Zm12.57-20.66q7.49-3.81,14.66-8.28a194.84,194.84,0,0,1,8.23,17.76A193.78,193.78,0,0,1,232,191.8Q230.08,183.58,227.48,175.59Zm-.32-1q-2.25-6.8-5-13.42,5.7-4.33,11-9.11,4.53,7,8.46,14.34Q234.58,170.84,227.16,174.62Zm6.8-23.21q6.24-5.61,12-11.79a195.18,195.18,0,0,1,12.56,15q-7.75,6-16,11.26Q238.54,158.45,234,151.41Zm-.56-.85q-3.93-6-8.31-11.66,4.36-5.68,8.31-11.67,6.18,5.56,11.89,11.67Q239.59,145,233.4,150.56Zm.56-24.18q4.57-7,8.55-14.5a195,195,0,0,1,16,11.27,195,195,0,0,1-12.56,15Q240.21,132,234,126.38Zm24-56.22a201.66,201.66,0,0,1-7.22,21.63A192.91,192.91,0,0,0,232.22,85a196.71,196.71,0,0,0,3.4-19.43A198.43,198.43,0,0,1,258,70.16ZM236.11,41.68a199.66,199.66,0,0,1-1.37,22.76q-9.83-1.36-19.65-1.74-.37-9.83-1.74-19.65A199.66,199.66,0,0,1,236.11,41.68ZM207.64,19.83a200.34,200.34,0,0,1,4.56,22.35,193.11,193.11,0,0,0-19.42,3.39A195.72,195.72,0,0,0,186,27.05,201.83,201.83,0,0,1,207.64,19.83ZM174.48,6.1a198.91,198.91,0,0,1,10.19,20.4,195,195,0,0,0-17.88,8.31,196.09,196.09,0,0,0-11.34-16.14A197.47,197.47,0,0,1,174.48,6.1ZM138.9,1.42A199.16,199.16,0,0,1,154,18.48,195.91,195.91,0,0,0,138.9,31.14a196.07,196.07,0,0,0-15.13-12.66A197.58,197.58,0,0,1,138.9,1.42ZM103.31,6.1a197.47,197.47,0,0,1,19,12.57A196.09,196.09,0,0,0,111,34.81,193.74,193.74,0,0,0,93.12,26.5,198.91,198.91,0,0,1,103.31,6.1ZM70.16,19.83a201.66,201.66,0,0,1,21.63,7.22A195.72,195.72,0,0,0,85,45.57a193.11,193.11,0,0,0-19.42-3.39A198.14,198.14,0,0,1,70.16,19.83ZM41.69,41.69a199.49,199.49,0,0,1,22.75,1.36Q63.08,52.88,62.7,62.7q-9.83.38-19.65,1.74A199.49,199.49,0,0,1,41.69,41.69ZM19.83,70.16a198.14,198.14,0,0,1,22.35-4.57A193.8,193.8,0,0,0,45.57,85a193.9,193.9,0,0,0-18.52,6.77A201.66,201.66,0,0,1,19.83,70.16ZM6.1,103.31A198.91,198.91,0,0,1,26.5,93.12,193.74,193.74,0,0,0,34.81,111a196.09,196.09,0,0,0-16.14,11.34A197.47,197.47,0,0,1,6.1,103.31ZM1.42,138.9a197.58,197.58,0,0,1,17.06-15.13A196,196,0,0,0,31.13,138.9,195.79,195.79,0,0,0,18.48,154,199.16,199.16,0,0,1,1.42,138.9ZM6.1,174.48a197.47,197.47,0,0,1,12.57-19,196.09,196.09,0,0,0,16.14,11.34,195,195,0,0,0-8.31,17.88A198.91,198.91,0,0,1,6.1,174.48Zm13.73,33.16A199.12,199.12,0,0,1,27.06,186a196.55,196.55,0,0,0,18.51,6.78,193.8,193.8,0,0,0-3.39,19.43A200.34,200.34,0,0,1,19.83,207.64Zm21.85,28.47a197.74,197.74,0,0,1,1.38-22.78,197,197,0,0,0,19.64,1.76q.38,9.81,1.74,19.65A199.66,199.66,0,0,1,41.68,236.11ZM70.16,258a198.43,198.43,0,0,1-4.57-22.34A196,196,0,0,0,85,232.22a195.72,195.72,0,0,0,6.78,18.52A199.46,199.46,0,0,1,70.16,258Zm33.15,13.73a198.91,198.91,0,0,1-10.19-20.4A191.16,191.16,0,0,0,111,243a196.09,196.09,0,0,0,11.34,16.14A197.47,197.47,0,0,1,103.31,271.69Zm35.59,4.69a199.21,199.21,0,0,1-15.13-17.07,196,196,0,0,0,15.13-12.65A195.79,195.79,0,0,0,154,259.31,200.81,200.81,0,0,1,138.9,276.38Zm35.58-4.69a197.47,197.47,0,0,1-19-12.57A196.09,196.09,0,0,0,166.79,243a195,195,0,0,0,17.88,8.31A198.91,198.91,0,0,1,174.48,271.69ZM207.64,258A199.63,199.63,0,0,1,186,250.74a195.72,195.72,0,0,0,6.78-18.52,196,196,0,0,0,19.42,3.4A200.63,200.63,0,0,1,207.64,258ZM236.1,236.1a199.49,199.49,0,0,1-22.75-1.36q1.36-9.83,1.74-19.65,9.82-.39,19.65-1.76A199.84,199.84,0,0,1,236.1,236.1ZM258,207.64a200.63,200.63,0,0,1-22.34,4.56,196.71,196.71,0,0,0-3.4-19.43A196.55,196.55,0,0,0,250.73,186,199.12,199.12,0,0,1,258,207.64Zm13.73-33.16a198.91,198.91,0,0,1-20.4,10.19A195,195,0,0,0,243,166.79a196.09,196.09,0,0,0,16.14-11.34A197.47,197.47,0,0,1,271.69,174.48ZM259.31,154a195.79,195.79,0,0,0-12.65-15.12,196,196,0,0,0,12.65-15.13,199.21,199.21,0,0,1,17.07,15.13A200.81,200.81,0,0,1,259.31,154Z"/></g></g></svg>